<?xml version="1.0" encoding="utf-8"?>
<!-- Generator: Adobe Illustrator 23.0.3, SVG Export Plug-In . SVG Version: 6.00 Build 0)  -->
<svg version="1.1" id="Layer_1" xmlns="http://www.w3.org/2000/svg" xmlns:xlink="http://www.w3.org/1999/xlink" x="0px" y="0px"
	 viewBox="0 0 157.3 154.7" style="enable-background:new 0 0 157.3 154.7;" xml:space="preserve">
<style type="text/css">
	.st0{fill:#00B4CB;}
	.st1{fill:#B8D434;}
	.st2{fill:none;stroke:#B8D434;stroke-width:3.1343;stroke-linecap:round;stroke-linejoin:round;stroke-miterlimit:3.8637;}
	.st3{fill:#FFFFFF;}
</style>
<g>
	<circle class="st0" cx="78.7" cy="77" r="14.9"/>
	<path class="st0" d="M78.7,77"/>
</g>
<polygon class="st1" points="36.9,104.5 41.6,101.3 44.9,116.3 32.2,107.7 "/>
<path class="st2" d="M37.4,105.3c-11.7-17-11.7-39.5,0-56.5"/>
<polygon class="st1" points="51.2,35.2 54.4,39.9 39.4,43.2 48,30.5 "/>
<path class="st2" d="M50.4,35.7c17-11.7,39.5-11.7,56.5,0"/>
<polygon class="st1" points="120.5,49.5 115.7,52.7 112.5,37.7 125.2,46.3 "/>
<path class="st2" d="M119.9,48.7c11.7,17,11.7,39.5,0,56.5"/>
<polygon class="st1" points="106.1,118.8 102.9,114.1 117.9,110.8 109.3,123.5 "/>
<path class="st2" d="M106.9,118.3c-17,11.7-39.5,11.7-56.5,0"/>
<g>
	<circle class="st3" cx="78.7" cy="77" r="6.5"/>
	<path class="st3" d="M78.7,77"/>
</g>
<path class="st3" d="M58.7,77c0-11,9-20,20-20s20,9,20,20c0,11-9,20-20,20S58.7,88,58.7,77z M81.7,42.1h-6.1l-2,8.9
	c-3.4,0.7-6.8,2-9.8,4.1l-7.7-4.9l-4.3,4.3l4.9,7.7c-2,2.9-3.4,6.2-4.1,9.8l-8.9,2V80l8.9,2c0.7,3.4,2,6.8,4.1,9.8l-4.9,7.7l4.3,4.3
	l7.7-4.9c2.9,2,6.2,3.4,9.8,4.1l2,8.9h6.1l2-8.9c3.4-0.7,6.8-2,9.8-4.1l7.7,4.9l4.3-4.3l-4.9-7.7c2-2.9,3.4-6.2,4.1-9.8l8.9-2V74
	l-8.9-2c-0.7-3.4-2-6.8-4.1-9.8l4.9-7.7l-4.3-4.3L93.5,55c-2.9-2-6.2-3.4-9.8-4.1L81.7,42.1z"/>
<path class="st0" d="M86.9,141l0.4,3.1l-5.3,0.5h-1.2l-0.2-3.1h1.1L86.9,141z M82.3,9.4l-0.2,3.1h-6.2V9.4H82.3z M69.1,10.1h0.3
	l0.4,3.1l-6.1,1.1L63,11.2L69.1,10.1z M88.7,10.1H89c0.4,0,4.9,0.9,6,1.2l-0.7,3.1c-2.1-0.5-4-0.8-6-1.1L88.7,10.1z M56.8,13l1,3
	l-5.6,2.2H52l-1.3-2.9L56.8,13z M101.2,13.2c1.9,0.7,4.1,1.5,6,2.4l-1.2,2.9l-5.8-2.3L101.2,13.2z M45,18.3l1.6,2.7
	c-1.7,1.1-3.4,2-5.2,3.3l-1.9-2.6C41.5,20.5,43.2,19.5,45,18.3z M112.9,18.7c1.8,1,3.5,2.2,5.3,3.5l-1.9,2.5
	c-1.7-1.1-3.5-2.4-5.2-3.4L112.9,18.7z M34.5,25.7l2,2.4l-4.4,4.2l-2.3-2.2L34.5,25.7z M123.4,26.2l4.6,4.5l-2.3,2.2l-4.5-4.3
	L123.4,26.2z M25.6,35.1l2.4,1.9l-3.7,5l-2.6-1.8C23,38.6,24.2,36.7,25.6,35.1z M132.2,35.7c1.4,1.7,2.6,3.5,3.7,5.2l-2.7,1.7
	c-1.1-1.7-2.2-3.3-3.6-5L132.2,35.7z M18.6,46l2.8,1.4c-0.9,1.9-1.9,3.7-2.6,5.6l-3-1.1C16.6,49.9,17.6,47.8,18.6,46z M139,46.6
	c1.1,1.8,1.9,3.9,2.6,5.8l-2.9,1.2c-0.8-1.9-1.5-3.7-2.5-5.6L139,46.6z M13.8,57.9l3,1c-0.7,2.1-1,3.9-1.4,5.9l-3.1-0.6l0.8-4.1
	L13.8,57.9z M143.8,58.6c0.1,0.6,1.4,5.3,1.4,6v0.2l-3.1,0.5c-0.1-0.5-0.2-1-0.2-1.5l-1.1-4.6L143.8,58.6z M11.3,70.6l3.1,0.4
	l-0.3,3.8V77H11v-1.8l0.2-3.4C11.2,71.4,11.3,71,11.3,70.6z M146.2,71.3l0.2,6.4h-3.2v-3.9l-0.2-2.3L146.2,71.3z M14.3,81.9
	c0.2,1.9,0.3,3.8,0.7,6L12,88.5c-0.4-2.1-0.6-4-0.8-6.5L14.3,81.9z M142.8,83.9l3.1,0.2v0.7l-0.9,5.7l-3.1-0.5
	C142.1,88,142.7,85.9,142.8,83.9z M16.4,94l1.9,5.9l-2.9,1.2l-2.1-6.2L16.4,94z M140.3,95.9l3,0.9c-0.6,2.2-1.4,4-2.2,6l-3-1.2
	C139,99.8,139.8,97.9,140.3,95.9z M20.8,105.5c0.8,1.7,1.9,3.6,2.9,5.4l-2.7,1.6c-1.1-1.8-2.1-3.8-3.1-5.6L20.8,105.5z M135.7,107.3
	l2.8,1.4c-0.9,1.9-2.1,3.7-3.3,5.6l-2.7-1.7C133.6,110.8,134.7,109,135.7,107.3z M27.1,115.9l4.1,4.7l-2.3,2.1
	c-1.5-1.6-2.8-3.3-4.2-4.8L27.1,115.9z M128.9,117.6l2.5,1.9c-1.2,1.6-2.7,3.3-4.3,4.9l-2.3-2.2L128.9,117.6z M35.6,125
	c1.6,1.4,3.2,2.7,4.8,3.8l-1.9,2.5c-1.7-1.1-3.4-2.6-5-4.1L35.6,125z M120.2,126.4l2.1,2.3c-1.6,1.4-3.4,2.7-5.1,3.9l-1.9-2.5
	C116.9,129,118.5,127.7,120.2,126.4z M45.5,132.4l5.4,3l-1.3,2.8c-1.9-1-3.9-2-5.8-3.1L45.5,132.4z M110.1,133.4l1.6,2.7
	c-1.8,1-3.8,2.1-5.7,2.9l-1.3-2.8C106.4,135.4,108.3,134.3,110.1,133.4z M56.5,137.7l5.9,1.8l-0.8,3l-6.1-1.9L56.5,137.7z
	 M98.9,138.3l1,3c-0.2,0.1-5,1.7-5.9,1.7h-0.3l-0.7-3.1C94.9,139.6,96.8,138.9,98.9,138.3z M68.4,140.8l6.1,0.6l-0.1,3.1h-0.9
	l-5.5-0.6L68.4,140.8z"/>
</svg>
