<?xml version="1.0" encoding="utf-8"?>
<!-- Generator: Adobe Illustrator 23.0.3, SVG Export Plug-In . SVG Version: 6.00 Build 0)  -->
<svg version="1.1" id="Layer_1" xmlns="http://www.w3.org/2000/svg" xmlns:xlink="http://www.w3.org/1999/xlink" x="0px" y="0px"
	 viewBox="0 0 157.3 154.7" style="enable-background:new 0 0 157.3 154.7;" xml:space="preserve">
<style type="text/css">
	.st0{fill:#ECEBE8;}
	.st1{clip-path:url(#SVGID_2_);}
	.st2{fill:#DDE0DD;}
	.st3{fill:#426C6A;}
	.st4{fill:#819C9F;}
	.st5{fill:#B8C5C4;}
	.st6{fill:#84D0D4;}
	.st7{clip-path:url(#SVGID_4_);}
	.st8{fill:#00B4CB;}
	.st9{fill:#08ADBD;}
	.st10{fill:none;}
	.st11{fill:#475558;}
	.st12{fill:#47C1CF;}
	.st13{fill:#B8D434;}
	.st14{fill:#D1D2D3;}
	.st15{fill:none;stroke:#FFFFFF;stroke-width:4.5748;stroke-linecap:round;stroke-linejoin:round;stroke-miterlimit:3.8637;}
	.st16{fill:#ED4395;}
	.st17{fill:#FFFFFF;}
</style>
<g>
	<g>
		<g>
			<circle id="SVGID_5_" class="st0" cx="63" cy="73.5" r="40.4"/>
		</g>
		<g>
			<g>
				<defs>
					<circle id="SVGID_1_" cx="63" cy="73.5" r="40.4"/>
				</defs>
				<clipPath id="SVGID_2_">
					<use xlink:href="#SVGID_1_"  style="overflow:visible;"/>
				</clipPath>
				<g class="st1">
					<g>
						<polygon class="st2" points="-20.6,78 23.3,34.1 105.8,116.6 61.9,160.5 						"/>
						<path class="st2" d="M42.6,97.3"/>
					</g>
				</g>
			</g>
		</g>
	</g>
</g>
<g>
	<g>
		<g>
			<polygon class="st3" points="99.3,113.7 102.9,110.1 115.7,122.9 112.1,126.5 			"/>
			<path class="st3" d="M107.5,118.3"/>
		</g>
	</g>
	<g>
		<g>
			<g>
				<path class="st4" d="M109.6,132.5c-1.1-1.1-1.1-2.9,0-4l8.1-8.1c1.1-1.1,2.9-1.1,4,0l14.6,14.6c1.1,1.1,1.1,2.9,0,4l-8.1,8.1
					c-1.1,1.1-2.9,1.1-4,0L109.6,132.5L109.6,132.5z"/>
				<path class="st4" d="M123,133.8"/>
			</g>
		</g>
		<g>
			<g>
				<path class="st5" d="M111.1,132c-0.8-0.8-0.8-2.2,0-3l1-1c0.8-0.8,2.2-0.8,3,0l13.6,13.6c0.8,0.8,0.8,2.2,0,3l-1,1
					c-0.8,0.8-2.2,0.8-3,0L111.1,132L111.1,132z"/>
				<path class="st5" d="M120,136.8"/>
			</g>
		</g>
	</g>
</g>
<g>
	<path class="st6" d="M34.4,102.1c15.8,15.8,41.4,15.8,57.2,0s15.8-41.4,0-57.2s-41.4-15.8-57.2,0S18.6,86.3,34.4,102.1z
		 M24.1,112.4c-21.5-21.5-21.5-56.3,0-77.7c21.5-21.5,56.3-21.5,77.7,0c21.5,21.5,21.5,56.3,0,77.7
		C80.4,133.8,45.6,133.8,24.1,112.4z"/>
	<g>
		<g>
			<g>
				<g>
					<defs>
						<path id="SVGID_3_" d="M34.4,102.1c15.8,15.8,41.4,15.8,57.2,0s15.8-41.4,0-57.2s-41.4-15.8-57.2,0S18.6,86.3,34.4,102.1z
							 M24.1,112.4c-21.5-21.5-21.5-56.3,0-77.7c21.5-21.5,56.3-21.5,77.7,0c21.5,21.5,21.5,56.3,0,77.7
							C80.4,133.8,45.6,133.8,24.1,112.4z"/>
					</defs>
					<clipPath id="SVGID_4_">
						<use xlink:href="#SVGID_3_"  style="overflow:visible;"/>
					</clipPath>
					<g class="st7">
						<g>
							<polygon class="st8" points="-20.6,78 23.3,34.1 105.8,116.6 61.9,160.5 							"/>
							<path class="st9" d="M42.6,97.3"/>
						</g>
					</g>
				</g>
			</g>
		</g>
		<circle class="st10" cx="63" cy="73.5" r="40.4"/>
		<circle class="st10" cx="63" cy="73.5" r="55"/>
	</g>
</g>
<g>
	<g>
		<path class="st11" d="M36.7,64c0-1.3,1-2.3,2.3-2.3h9.1c1.3,0,2.3,1,2.3,2.3v24.6H36.7V64L36.7,64z"/>
		<path class="st11" d="M43.6,75.2"/>
	</g>
</g>
<g>
	<g>
		<path class="st12" d="M56.1,67.2c0-1.3,1-2.3,2.3-2.3h9.1c1.3,0,2.3,1,2.3,2.3v21.3H56.1V67.2L56.1,67.2z"/>
		<path class="st12" d="M63,76.7"/>
	</g>
</g>
<g>
	<g>
		<path class="st13" d="M75.6,57.2c0-1.3,1-2.3,2.3-2.3H87c1.3,0,2.3,1,2.3,2.3v31.4H75.6V57.2L75.6,57.2z"/>
		<path class="st13" d="M82.4,71.8"/>
	</g>
</g>
<g>
	<g>
		<path class="st14" d="M33,89.2c0-0.6,0.5-1.1,1.1-1.1h57.8c0.6,0,1.1,0.5,1.1,1.1v1.7c0,0.6-0.5,1.1-1.1,1.1H34.1
			c-0.6,0-1.1-0.5-1.1-1.1V89.2L33,89.2z"/>
		<path class="st14" d="M63,90"/>
	</g>
</g>
<g>
	<path class="st15" d="M109.1,73.5c0-25.4-20.6-46.1-46.1-46.1"/>
</g>
<g>
	<g>
		<g>
			<circle class="st16" cx="117.3" cy="33.9" r="26.4"/>
			<path class="st16" d="M117.3,33.9"/>
		</g>
	</g>
	<g>
		<path class="st17" d="M123,28.3c3.1,3.1,3.1,8.2,0,11.3c-1.4,1.3-3.4-0.7-2-2c2-2,2-5.2,0-7.2C119.6,29,121.6,26.9,123,28.3z
			 M114.4,33.9c0-1.6,1.3-2.9,2.9-2.9s2.9,1.3,2.9,2.9s-1.3,2.9-2.9,2.9C115.7,36.9,114.4,35.5,114.4,33.9z M107.7,43.5
			c-5.3-5.3-5.3-13.9,0-19.2c1.4-1.4,3.4,0.7,2,2c-4.2,4.2-4.2,11,0,15.1C111.1,42.9,109.1,44.9,107.7,43.5z M126.9,24.3
			c5.3,5.3,5.3,13.9,0,19.2c-1.4,1.4-3.4-0.7-2-2c4.2-4.2,4.2-11,0-15.1C123.6,25,125.6,23,126.9,24.3z M111.7,39.6
			c-3.1-3.1-3.1-8.2,0-11.3c1.4-1.4,3.4,0.7,2,2c-2,2-2,5.2,0,7.2C115.1,38.9,113.1,40.9,111.7,39.6z"/>
	</g>
</g>
</svg>
