<?xml version="1.0" encoding="utf-8"?>
<!-- Generator: Adobe Illustrator 23.0.3, SVG Export Plug-In . SVG Version: 6.00 Build 0)  -->
<svg version="1.1" id="Layer_1" xmlns="http://www.w3.org/2000/svg" xmlns:xlink="http://www.w3.org/1999/xlink" x="0px" y="0px"
	 viewBox="0 0 157.3 154.7" style="enable-background:new 0 0 157.3 154.7;" xml:space="preserve">
<style type="text/css">
	.st0{fill:#CBD157;}
	.st1{fill:#475558;}
	.st2{clip-path:url(#SVGID_2_);}
	.st3{fill:#ECEBE8;}
	.st4{clip-path:url(#SVGID_4_);}
	.st5{fill:#DDE0DD;}
	.st6{fill:#00B4CB;}
	.st7{fill:#B8D434;}
	.st8{fill:#FFFFFF;}
</style>
<g>
	<ellipse class="st0" cx="79.5" cy="40.3" rx="14.8" ry="17"/>
	<path class="st0" d="M79.5,40.3"/>
</g>
<g>
	<g>
		<g>
			<path id="SVGID_9_" class="st1" d="M37.3,49.5h24.9l17.2,7.8l14.8-7.8h19.5v12.2h7.4v11.8h2.9c4.9,0,8.9,4,8.9,8.9v14.3
				c0,4.9-4,8.9-8.9,8.9h-2.9v14.6h-7.4h-5.2H37.3V49.5z"/>
		</g>
		<g>
			<defs>
				<path id="SVGID_1_" d="M37.3,49.5h24.9l17.2,7.8l14.8-7.8h19.5v12.2h7.4v11.8h2.9c4.9,0,8.9,4,8.9,8.9v14.3c0,4.9-4,8.9-8.9,8.9
					h-2.9v14.6h-7.4h-5.2H37.3V49.5z"/>
			</defs>
			<clipPath id="SVGID_2_">
				<use xlink:href="#SVGID_1_"  style="overflow:visible;"/>
			</clipPath>
			<g class="st2">
				<g>
					<g>
						<g>
							<circle id="SVGID_11_" class="st3" cx="92.8" cy="93.9" r="49.2"/>
						</g>
						<g>
							<defs>
								<circle id="SVGID_3_" cx="92.8" cy="93.9" r="49.2"/>
							</defs>
							<clipPath id="SVGID_4_">
								<use xlink:href="#SVGID_3_"  style="overflow:visible;"/>
							</clipPath>
							<g class="st4">
								<path class="st5" d="M99.8,85c-5.2,0-9.4,4.2-9.4,9.4c0,5.2,4.2,9.4,9.4,9.4l24.2-0.2L123.9,85L99.8,85L99.8,85z"/>
							</g>
						</g>
					</g>
				</g>
				<g>
					<g>
						<polygon class="st5" points="11.3,0 72.7,0 72.7,143.5 11.4,143.5 						"/>
						<path class="st5" d="M42,71.7"/>
					</g>
				</g>
			</g>
		</g>
	</g>
</g>
<path class="st6" d="M100,71.4h24c4.9,0,8.9,4,8.9,8.9v18.3c0,4.9-4,8.9-8.9,8.9h-24c-10,0-18.1-8.1-18.1-18.1S90,71.4,100,71.4z
	 M100,80.2c-5.2,0-9.4,4.2-9.4,9.4s4.2,9.4,9.4,9.4l24.2-0.2l-0.2-18.5H100z M103.1,89.6c0-2,1.6-3.7,3.7-3.7c2,0,3.7,1.6,3.7,3.7
	s-1.6,3.7-3.7,3.7C104.8,93.2,103.1,91.6,103.1,89.6z M107.8,54l-0.1-3.4H98c-0.6,1.2-1.4,2.3-2.2,3.4H107.8z M100.5,41.8h7.2
	c4.9,0,8.9,4,8.9,8.9V54c4.5,0.5,8,4.3,8,8.9v1.7V69h-8.7v-4.4l-0.2-1.9H49.3H45V54h4.4h12.1c-0.8-1.1-1.6-2.2-2.2-3.4L40,50.8
	l0.2,64.3l75.7-0.2v-4.4h8.7v4.4c0,4.9-4,8.9-8.9,8.9H40.2c-4.9,0-8.9-4-8.9-8.9V50.8c0-4.9,4-8.9,8.9-8.9h16.5c0-0.5-0.1-1-0.1-1.5
	c0-12.1,9.8-22,22-22c12.1,0,22,9.8,22,22C100.6,40.8,100.5,41.3,100.5,41.8z"/>
<g>
	<path class="st7" d="M56.2,40.7c0-12.6,10.3-22.9,22.9-22.9S102,28,102,40.7c0,5-1.6,9.5-4.2,13.3H60.5
		C57.8,50.2,56.2,45.6,56.2,40.7z"/>
</g>
<path class="st8" d="M80.7,48.3c1.2-0.2,2.1-0.6,2.9-1.3c0.8-0.7,1.1-1.6,1.1-2.7c0-1-0.3-1.9-1-2.7c-0.7-0.8-1.7-1.3-3-1.7
	L80.7,48.3L80.7,48.3z M74.5,32.5c0,1,0.3,1.8,0.9,2.5c0.6,0.7,1.7,1.3,3.3,1.6v-7.9c-1.3,0.1-2.3,0.5-3.1,1.2
	C74.8,30.6,74.5,31.4,74.5,32.5z M78.7,52.5v-1.2c-1.9-0.1-3.6-0.6-5.2-1.4C72,49.1,71,48,70.4,46.6c-0.1-0.2-0.1-0.4-0.1-0.6
	c0-0.3,0.1-0.6,0.3-0.8c0.2-0.2,0.5-0.4,0.9-0.5c0.1,0,0.2,0,0.3,0c0.3,0,0.6,0.1,0.9,0.3s0.5,0.5,0.7,0.8c0.3,0.7,1,1.3,1.9,1.8
	c1,0.5,2.1,0.8,3.3,0.9v-8.9c-2.3-0.3-4.1-1.1-5.4-2.4c-1.3-1.2-2-2.8-2-4.6c0-1.9,0.7-3.4,2.1-4.5c1.4-1.2,3.2-1.9,5.3-2v-1.6
	c0-0.3,0.1-0.5,0.3-0.7c0.2-0.2,0.4-0.3,0.7-0.3c0.3,0,0.5,0.1,0.7,0.3c0.2,0.2,0.3,0.4,0.3,0.7v1.6c1.6,0.1,2.9,0.6,4,1.3
	s2,1.7,2.7,3c0.2,0.4,0.4,0.8,0.4,1.1c0,0.5-0.2,0.9-0.6,1.1c-0.2,0.2-0.5,0.2-0.8,0.2c-0.3,0-0.6-0.1-0.8-0.2
	c-0.3-0.2-0.5-0.4-0.6-0.6c-0.5-0.8-1-1.5-1.7-2c-0.7-0.5-1.5-0.8-2.6-1v8.2c2.3,0.3,4,1.1,5.3,2.3c1.3,1.2,1.9,2.9,1.9,4.9
	c0,1.4-0.3,2.6-1,3.6c-0.7,1-1.5,1.8-2.6,2.4c-1.1,0.6-2.3,1-3.6,1.1v1.2L78.7,52.5L78.7,52.5z"/>
</svg>
