<?xml version="1.0" encoding="utf-8"?>
<!-- Generator: Adobe Illustrator 23.0.3, SVG Export Plug-In . SVG Version: 6.00 Build 0)  -->
<svg version="1.1" id="Layer_1" xmlns="http://www.w3.org/2000/svg" xmlns:xlink="http://www.w3.org/1999/xlink" x="0px" y="0px"
	 viewBox="0 0 125 112.7" style="enable-background:new 0 0 125 112.7;" xml:space="preserve">
<style type="text/css">
	.st0{fill:#FFFFFF;}
	.st1{fill:url(#SVGID_1_);}
</style>
<path d="M-848.4,31.5l2.6,4.2c4.7,7.4,9.8,14.3,15.4,20.5c0.3-0.7,0.7-1.4,1.4-2.1c3.1-3.1,8.1-3.1,11.2,0c3.1,3.1,3.1,8.1,0,11.2
	c-0.7,0.7-1.4,1.1-2.1,1.4c6.4,5.8,13.2,10.9,20.5,15.4l4.3,2.6l-3.6,3.6c-7.1,7.1-16.6,11-26.6,11c-10.1,0-19.5-3.9-26.6-11
	c-7.1-7.1-11-16.6-11-26.6s3.9-19.5,11-26.6L-848.4,31.5z M-849.5,44.4c-8.2,11.6-7.2,27.8,3.2,38.2c5.6,5.6,13.1,8.7,21,8.7
	c6.2,0,12.2-1.9,17.2-5.4C-824.2,75.3-838,61.4-849.5,44.4z M-801.1,31.9l4.5-4.5c3.8-3.8,9.4,1.9,5.7,5.7l-4.5,4.5
	C-799.2,41.3-804.9,35.6-801.1,31.9z M-814.6,45.3l4.5-4.5c3.8-3.8,9.4,1.9,5.7,5.7l-4.5,4.5C-812.7,54.7-818.3,49.1-814.6,45.3z"/>
<path d="M-698.2-59.8l9.2,9.2l17.7-17.7c3.8-3.8,9.4,1.9,5.7,5.7c-7,7-20.5,26.2-26.2,20.5l-12-12C-707.7-58-702-63.6-698.2-59.8z
	 M-736.1-101h47v-16.5h-47V-101z M-689.1-69h-47v16.5h24.5c5.3,0,5.3,8,0,8h-24.5c-4.4,0-8-3.6-8-8v-65c0-4.4,3.6-8,8-8h47
	c4.4,0,8,3.6,8,8v50.2c0,5.3-8,5.3-8,0V-69z M-736.1-77h47v-16h-47V-77z"/>
<path d="M-830.3-51.1v-26.1l-6.7,0c-2.3-0.1-3.7-1.8-3.7-3.7c0-0.8,0.3-1.7,1-2.5c3.5-4.1,7-8.2,10.5-12.4c0.9-1.1,2-1.6,3-1.6
	c0.9,0,2.1,0.5,3,1.6c3.5,4.3,7.3,8.6,10.8,12.9c0.5,0.6,0.6,1.4,0.6,2c0,1.8-1.4,3.6-3.7,3.7l-6.8,0v26.1
	C-822.3-45.8-830.3-45.8-830.3-51.1z M-847.4-107.9c4.8-7,12.9-11.6,22.1-11.6c12,0,22.2,7.9,25.6,18.8
	c11.3,1.5,21.6,10.5,21.6,22.8c0,13-10.5,23.5-23.5,23.5h-8.7c-5.3,0-5.3-8,0-8h8.7c8.6,0,15.5-6.9,15.5-15.5
	c0-8.1-7.7-14.9-16.6-15c-1,0.1-2-0.2-2.8-0.9c-0.8-0.6-1.2-1.6-1.4-2.6c-1.7-8.6-9.3-15.2-18.4-15.2c-6.8,0-12.8,3.6-16.1,9
	c-0.1,1.2-0.8,2.2-2.2,2.6c-0.9,0.4-1.9,0.5-2.9,0.2c-0.4,0-0.8-0.1-1.2-0.2c-10.4,0-18.8,8.4-18.8,18.8c0,10.4,8.4,18.8,18.8,18.8
	h6.9c5.3,0,5.3,8,0,8h-6.9c-14.8,0-26.8-12-26.8-26.8c0-14.8,12-26.8,26.8-26.8L-847.4-107.9z"/>
<path d="M-688.5,46.9c8.7,8.7,8.7,22.8,0,31.5c-3.8,3.8-9.4-1.9-5.7-5.7c5.6-5.6,5.6-14.6,0-20.2C-698,48.8-692.3,43.1-688.5,46.9z
	 M-712.4,62.7c0-4.5,3.7-8.2,8.2-8.2s8.2,3.7,8.2,8.2c0,4.5-3.7,8.2-8.2,8.2S-712.4,67.2-712.4,62.7z M-731.1,89.4
	c-14.8-14.8-14.8-38.8,0-53.6c3.8-3.8,9.4,1.9,5.7,5.7c-11.7,11.7-11.7,30.6,0,42.2C-721.6,87.6-727.3,93.2-731.1,89.4z
	 M-677.5,35.9c14.8,14.8,14.8,38.8,0,53.6c-3.8,3.8-9.4-1.9-5.7-5.7c11.7-11.7,11.7-30.6,0-42.2C-686.9,37.8-681.3,32.1-677.5,35.9z
	 M-720,78.4c-8.7-8.7-8.7-22.8,0-31.5c3.8-3.8,9.4,1.9,5.7,5.7c-5.6,5.6-5.6,14.6,0,20.2C-710.6,76.5-716.3,82.2-720,78.4z"/>
<g>
	<path class="st0" d="M75.8,49.6c-0.4-0.3-0.7-0.8-0.8-1.5C75,48.6,75.3,49.2,75.8,49.6z M77.6,50.2h-0.1c-0.7,0-1.3-0.2-1.7-0.6
		C76.3,50.1,76.9,50.2,77.6,50.2z M49,40.6c3.1-4.5,8.3-7.4,14.1-7.4c7.7,0,14.2,5.1,16.3,12c7.2,0.9,13.8,6.7,13.8,14.6
		c0,8.3-6.7,15-15,15h-5.5c-3.4,0-3.4-5.1,0-5.1h5.5c5.5,0,9.9-4.4,9.9-9.9c0-5.2-4.9-9.5-10.6-9.6c-0.6,0-1.3-0.1-1.8-0.6
		c-0.5-0.4-0.8-1-0.9-1.6c-1.1-5.5-5.9-9.7-11.8-9.7c-4.4,0-8.2,2.3-10.3,5.8c-0.1,0.7-0.5,1.4-1.4,1.7c-0.6,0.3-1.2,0.3-1.8,0.1
		c-0.3,0-0.5-0.1-0.8-0.1c-6.6,0-12,5.4-12,12c0,6.6,5.4,12,12,12h4.4c3.4,0,3.4,5.1,0,5.1h-4.4c-9.5,0-17.1-7.7-17.1-17.1
		c0-9.5,7.7-17.1,17.1-17.1L49,40.6z"/>
	<path class="st0" d="M59.9,76.9V60.3l-4.3,0c-1.5-0.1-2.4-1.2-2.4-2.3c0-0.5,0.2-1.1,0.6-1.6c2.2-2.6,4.5-5.2,6.7-7.9
		c0.6-0.7,1.3-1,1.9-1c0.6,0,1.4,0.3,1.9,1c2.2,2.8,4.7,5.5,6.9,8.3c0.3,0.4,0.4,0.9,0.4,1.3c0,1.1-0.9,2.3-2.4,2.3l-4.3,0v16.7
		C65.1,80.3,59.9,80.3,59.9,76.9z"/>
</g>
<linearGradient id="SVGID_1_" gradientUnits="userSpaceOnUse" x1="11.2313" y1="57.667" x2="113.7682" y2="57.667" gradientTransform="matrix(1 0 0 -1 0 114)">
	<stop  offset="0" style="stop-color:#ABC738"/>
	<stop  offset="1" style="stop-color:#00B4CB"/>
</linearGradient>
<path class="st1" d="M98.8,20.1c-20-20-52.5-20-72.5,0c-20,20-20,52.5,0,72.5c20,20,52.5,20,72.5,0C118.8,72.6,118.8,40.1,98.8,20.1
	z M95.1,89c-18,18-47.2,18-65.3,0c-18-18-18-47.3,0-65.3c18-18,47.2-18,65.3,0C113.2,41.7,113.2,70.9,95.1,89z"/>
</svg>
