<?xml version="1.0" encoding="utf-8"?>
<!-- Generator: Adobe Illustrator 19.0.0, SVG Export Plug-In . SVG Version: 6.00 Build 0)  -->
<svg version="1.1" id="Capa_1" xmlns="http://www.w3.org/2000/svg" xmlns:xlink="http://www.w3.org/1999/xlink" x="0px" y="0px"
	 viewBox="-57 31.8 539 645.1" style="enable-background:new -57 31.8 539 645.1;" xml:space="preserve">
<style type="text/css">
	.st0{fill:url(#SVGID_1_);}
	.st1{fill:url(#SVGID_2_);}
</style>
<g>
	<g>
		
			<linearGradient id="SVGID_1_" gradientUnits="userSpaceOnUse" x1="-41" y1="326.68" x2="471" y2="326.68" gradientTransform="matrix(1 0 0 -1 0 841.67)">
			<stop  offset="0" style="stop-color:#AAC738"/>
			<stop  offset="1" style="stop-color:#00B4CB"/>
		</linearGradient>
		<path class="st0" d="M215,660.9c-9.2,0-18.4-3.5-25.3-10.5L-30.5,430.3c-14-14-14-36.7,0-50.7s36.7-14,50.7,0L215,574.4
			l194.8-194.8c14-14,36.7-14,50.7,0s14,36.7,0,50.7L240.3,650.4C233.3,657.4,224.2,660.9,215,660.9z"/>
	</g>
</g>
<g>
	<g>
		
			<linearGradient id="SVGID_2_" gradientUnits="userSpaceOnUse" x1="-41" y1="188.68" x2="471" y2="188.68" gradientTransform="matrix(-1 0 0 1 430 4.31)">
			<stop  offset="0" style="stop-color:#AAC738"/>
			<stop  offset="1" style="stop-color:#00B4CB"/>
		</linearGradient>
		<path class="st1" d="M215,47.1c9.2,0,18.4,3.5,25.3,10.5l220.2,220.1c14,14,14,36.7,0,50.7s-36.7,14-50.7,0L215,133.6L20.2,328.4
			c-14,14-36.7,14-50.7,0s-14-36.7,0-50.7L189.7,57.6C196.7,50.6,205.8,47.1,215,47.1z"/>
	</g>
</g>
</svg>
