<svg xmlns="http://www.w3.org/2000/svg" width="14.639" height="16.802" viewBox="0 0 14.639 16.802">
  <g id="clipboard" transform="translate(-4.312)">
    <g id="Grupo_686" data-name="Grupo 686" transform="translate(4.312)">
      <path id="Caminho_600" data-name="Caminho 600" d="M18.668,4.145,14.373.179A.559.559,0,0,0,14.035,0H9.612C8.256,0,7.321.7,7.321,1.725V3.009H6.479A1.972,1.972,0,0,0,4.312,4.857V14.889A2.038,2.038,0,0,0,6.479,16.8H13.81a1.93,1.93,0,0,0,2.038-1.913v-1.1h1.095a1.93,1.93,0,0,0,1.915-2.037v-7.1c0-.007.061-.014.06-.021s.034-.015.034-.022A.475.475,0,0,0,18.668,4.145ZM14.343,1.671l2.8,2.341h-2.8Zm.5,13.217a.936.936,0,0,1-1.035.91H6.48c-.583,0-1.164-.346-1.164-.91V4.857c0-.652.776-.845,1.164-.845h3.852V7.87c0,.277.35.406.627.406h3.887v6.613Zm-.573-7.616H11.334V4.8Zm2.671,5.517H15.848v-5a.457.457,0,0,0-.1-.37L11.377,3.389a.478.478,0,0,0-.434-.284c-.009,0-.01-.046-.019-.045s-.011-.05-.021-.05H8.325V1.724c0-.517.757-.721,1.288-.721H13.34V4.609c0,.277.35.406.627.406h3.887v6.741A.931.931,0,0,1,16.943,12.79Z" transform="translate(-4.312)" fill="#fff"/>
    </g>
  </g>
</svg>
