<?xml version="1.0" encoding="utf-8"?>
<!-- Generator: Adobe Illustrator 16.0.0, SVG Export Plug-In . SVG Version: 6.00 Build 0)  -->
<!DOCTYPE svg PUBLIC "-//W3C//DTD SVG 1.1//EN" "http://www.w3.org/Graphics/SVG/1.1/DTD/svg11.dtd">
<svg version="1.1" id="Layer_1" xmlns="http://www.w3.org/2000/svg" xmlns:xlink="http://www.w3.org/1999/xlink" x="0px" y="0px"
	 width="581px" height="219px" viewBox="148.75 221.612 581 219" enable-background="new 148.75 221.612 581 219"
	 xml:space="preserve">
<g>
	
		<radialGradient id="SVGID_1_" cx="261.0959" cy="141.7341" r="92.6641" gradientTransform="matrix(1 0 0 -1 -0.0151 473.9233)" gradientUnits="userSpaceOnUse">
		<stop  offset="0" style="stop-color:#FFFFFF"/>
		<stop  offset="0.4223" style="stop-color:#FDFDFD"/>
		<stop  offset="0.5964" style="stop-color:#F6F6F6"/>
		<stop  offset="0.7247" style="stop-color:#EAEAEB"/>
		<stop  offset="0.8306" style="stop-color:#D8D9DA"/>
		<stop  offset="0.9216" style="stop-color:#C1C3C5"/>
		<stop  offset="1" style="stop-color:#A7A9AC"/>
	</radialGradient>
	<circle fill="url(#SVGID_1_)" cx="261.081" cy="332.189" r="92.664"/>
	
		<radialGradient id="SVGID_2_" cx="261.095" cy="141.7341" r="0" gradientTransform="matrix(1 0 0 -1 -0.0151 473.9233)" gradientUnits="userSpaceOnUse">
		<stop  offset="0" style="stop-color:#FFFFFF"/>
		<stop  offset="0.4223" style="stop-color:#FDFDFD"/>
		<stop  offset="0.5964" style="stop-color:#F6F6F6"/>
		<stop  offset="0.7247" style="stop-color:#EAEAEB"/>
		<stop  offset="0.8306" style="stop-color:#D8D9DA"/>
		<stop  offset="0.9216" style="stop-color:#C1C3C5"/>
		<stop  offset="1" style="stop-color:#A7A9AC"/>
	</radialGradient>
	<path fill="url(#SVGID_2_)" d="M261.08,332.189"/>
</g>
<path fill="#323A45" d="M302.075,337.38l-6.926-4.16c-0.414-0.26-0.683-0.599-0.804-1.021c-0.122-0.421-0.062-0.847,0.184-1.276
	c0.241-0.373,0.524-0.621,0.853-0.744c0.328-0.124,0.63-0.165,0.904-0.123c-0.147-0.413-0.229-0.851-0.24-1.312
	c-0.011-0.461,0.099-0.895,0.329-1.302c0.232-0.374,0.565-0.627,1-0.757c0.436-0.13,0.882-0.066,1.341,0.188
	c0.468,0.294,0.704,0.663,0.713,1.109c0.008,0.446-0.078,0.974-0.259,1.583c-0.208,0.701-0.242,1.26-0.105,1.676
	c0.137,0.415,0.559,0.829,1.266,1.241l3.444,2.068c0.414,0.259,0.683,0.599,0.804,1.02c0.122,0.422,0.062,0.848-0.184,1.277
	c-0.266,0.417-0.612,0.671-1.041,0.762C302.923,337.7,302.497,337.624,302.075,337.38z M273.821,393.266l-10.844-6.516
	c-0.414-0.258-0.683-0.598-0.804-1.019c-0.12-0.421-0.06-0.848,0.186-1.276c0.217-0.338,0.482-0.561,0.798-0.671
	c0.314-0.109,0.615-0.146,0.902-0.106c-0.198-0.545-0.267-1.063-0.203-1.556c0.063-0.492,0.256-1.002,0.577-1.53
	c0.51-0.823,1.187-1.428,2.031-1.813c0.846-0.385,1.768-0.536,2.765-0.457c0.997,0.08,1.979,0.404,2.941,0.973
	c0.955,0.585,1.702,1.3,2.24,2.143c0.539,0.843,0.837,1.728,0.896,2.653c0.058,0.927-0.158,1.809-0.646,2.646
	c-0.366,0.593-0.735,1.023-1.104,1.289c-0.37,0.268-0.736,0.457-1.1,0.572l3.064,1.84c0.414,0.259,0.682,0.599,0.804,1.02
	c0.121,0.423,0.06,0.849-0.185,1.277c-0.266,0.417-0.611,0.671-1.041,0.762C274.67,393.588,274.244,393.511,273.821,393.266z
	 M271.702,385.503c0.359-0.64,0.412-1.262,0.157-1.864c-0.254-0.604-0.717-1.109-1.387-1.517c-0.674-0.399-1.335-0.571-1.988-0.512
	c-0.652,0.059-1.177,0.396-1.572,1.016c-0.358,0.64-0.412,1.261-0.158,1.864c0.254,0.604,0.718,1.109,1.388,1.515
	c0.673,0.401,1.335,0.572,1.987,0.515C270.782,386.459,271.306,386.12,271.702,385.503z M274.759,367.147l6.929,4.162
	c0.414,0.258,0.682,0.598,0.803,1.019s0.06,0.847-0.185,1.276c-0.218,0.338-0.483,0.561-0.799,0.671
	c-0.314,0.109-0.615,0.146-0.903,0.109c0.199,0.544,0.267,1.063,0.204,1.554c-0.063,0.492-0.255,1.002-0.577,1.528
	c-0.509,0.824-1.188,1.429-2.031,1.813c-0.846,0.385-1.767,0.536-2.764,0.456c-0.997-0.079-1.979-0.403-2.942-0.972
	c-0.955-0.585-1.702-1.3-2.24-2.143c-0.539-0.843-0.837-1.728-0.895-2.654c-0.058-0.926,0.158-1.808,0.646-2.644
	c0.314-0.532,0.676-0.941,1.08-1.229c0.404-0.286,0.896-0.471,1.47-0.552c-0.169-0.235-0.278-0.52-0.329-0.848
	c-0.052-0.33,0.021-0.669,0.218-1.021c0.265-0.418,0.611-0.672,1.041-0.762C273.911,366.826,274.337,366.903,274.759,367.147z
	 M272.962,372.558c-0.358,0.639-0.412,1.262-0.156,1.864c0.254,0.604,0.717,1.109,1.387,1.517c0.673,0.399,1.335,0.571,1.988,0.512
	c0.651-0.059,1.177-0.396,1.571-1.016c0.36-0.64,0.412-1.262,0.158-1.865c-0.254-0.604-0.716-1.108-1.387-1.515
	c-0.673-0.4-1.335-0.571-1.988-0.514C273.883,371.602,273.358,371.94,272.962,372.558z M293.656,360.261l-10.844-6.517
	c-0.414-0.258-0.683-0.598-0.804-1.019s-0.061-0.848,0.186-1.276c0.217-0.338,0.481-0.561,0.797-0.67s0.616-0.146,0.903-0.108
	c-0.198-0.544-0.268-1.063-0.203-1.554c0.063-0.492,0.255-1.003,0.577-1.531c0.509-0.823,1.187-1.428,2.031-1.813
	c0.846-0.384,1.768-0.536,2.765-0.456c0.997,0.079,1.978,0.403,2.941,0.972c0.955,0.585,1.701,1.299,2.24,2.143
	c0.538,0.843,0.837,1.728,0.896,2.653c0.057,0.928-0.158,1.81-0.647,2.646c-0.366,0.593-0.734,1.022-1.104,1.289
	c-0.371,0.268-0.737,0.458-1.1,0.571l3.063,1.842c0.414,0.259,0.683,0.598,0.804,1.019c0.122,0.422,0.061,0.848-0.184,1.277
	c-0.266,0.418-0.612,0.672-1.041,0.762C294.504,360.581,294.078,360.505,293.656,360.261z M291.536,352.497
	c0.36-0.639,0.413-1.262,0.158-1.865c-0.255-0.603-0.717-1.108-1.387-1.516c-0.674-0.4-1.336-0.57-1.988-0.512
	c-0.652,0.058-1.177,0.396-1.573,1.016c-0.358,0.64-0.412,1.261-0.157,1.865c0.254,0.604,0.717,1.108,1.387,1.515
	c0.673,0.4,1.336,0.571,1.988,0.514C290.616,353.453,291.141,353.114,291.536,352.497z M298.153,338.155l-3.074,5.114
	c0.317,0.216,0.746,0.269,1.288,0.154c0.541-0.11,1.093-0.604,1.655-1.475c0.268-0.47,0.437-0.926,0.508-1.366
	c0.07-0.439,0.116-0.841,0.137-1.197c0.021-0.359,0.091-0.648,0.209-0.871c0.201-0.323,0.479-0.531,0.833-0.625
	c0.354-0.094,0.718-0.033,1.091,0.178c0.453,0.293,0.72,0.76,0.799,1.398c0.079,0.64,0.011,1.354-0.206,2.141
	s-0.543,1.545-0.979,2.273c-0.624,1.016-1.383,1.756-2.277,2.223c-0.896,0.467-1.847,0.669-2.854,0.606s-1.993-0.379-2.956-0.951
	c-0.915-0.561-1.633-1.28-2.151-2.161c-0.518-0.882-0.789-1.832-0.813-2.854c-0.023-1.021,0.252-2.022,0.825-3.006
	c0.576-0.928,1.296-1.598,2.158-2.012c0.861-0.412,1.769-0.588,2.719-0.527c0.951,0.063,1.846,0.342,2.685,0.84
	c0.486,0.293,0.747,0.607,0.78,0.943C298.563,337.316,298.437,337.708,298.153,338.155z M293.142,342.104l2.202-3.664
	c-0.224-0.131-0.511-0.2-0.862-0.207c-0.353-0.007-0.707,0.067-1.063,0.228c-0.354,0.158-0.649,0.421-0.882,0.786
	c-0.214,0.377-0.308,0.76-0.28,1.148c0.028,0.388,0.128,0.735,0.299,1.045C292.726,341.749,292.922,341.97,293.142,342.104z"/>
<g>
	
		<linearGradient id="SVGID_3_" gradientUnits="userSpaceOnUse" x1="279.5642" y1="103.6794" x2="288.5244" y2="114.3576" gradientTransform="matrix(1 0 0 -1 -0.0151 473.9233)">
		<stop  offset="0" style="stop-color:#AAC738"/>
		<stop  offset="1" style="stop-color:#00B4CB"/>
	</linearGradient>
	<path fill="url(#SVGID_3_)" d="M276.802,366.977l6.82-1.335l-1.913-3.494l-5.638,1.103
		C273.586,363.737,274.316,367.463,276.802,366.977z M290.869,369.153l-7.505-13.707c-1.217-2.223-4.548-0.399-3.331,1.822
		l7.505,13.708C288.755,373.198,292.085,371.376,290.869,369.153z"/>
	<g>
		<g>
			<g>
				<defs>
					<path id="SVGID_4_" d="M276.802,366.977l6.82-1.335l-1.913-3.494l-5.638,1.103
						C273.586,363.737,274.316,367.463,276.802,366.977z M290.869,369.153l-7.505-13.707c-1.217-2.223-4.548-0.399-3.331,1.822
						l7.505,13.708C288.755,373.198,292.085,371.376,290.869,369.153z"/>
				</defs>
				<clipPath id="SVGID_5_">
					<use xlink:href="#SVGID_4_"  overflow="visible"/>
				</clipPath>
				<g opacity="0.45" clip-path="url(#SVGID_5_)">
					<path fill="#231F20" d="M284.007,365.456l-1.843-3.366l-5.16,1.011c-2.393,0.468-1.689,4.058,0.703,3.589L284.007,365.456z
						 M283.694,356.136c-1.171-2.14-4.379-0.384-3.208,1.756l6.755,12.337c1.171,2.139,4.379,0.382,3.208-1.757L283.694,356.136z
						 M279.461,373.171c-5.66-3.401-7.491-10.746-4.091-16.405c3.4-5.66,10.746-7.491,16.406-4.091s7.491,10.746,4.091,16.405
						C292.466,374.74,285.121,376.571,279.461,373.171z"/>
				</g>
			</g>
		</g>
		<path fill="none" d="M276.802,366.977l6.82-1.335l-1.913-3.494l-5.638,1.103C273.586,363.737,274.316,367.463,276.802,366.977z"/>
		<path fill="none" d="M290.869,369.153l-7.505-13.707c-1.217-2.223-4.548-0.399-3.331,1.822l7.505,13.708
			C288.755,373.198,292.085,371.376,290.869,369.153z"/>
	</g>
</g>
<g>
	
		<linearGradient id="SVGID_6_" gradientUnits="userSpaceOnUse" x1="210.718" y1="141.7341" x2="311.4729" y2="141.7341" gradientTransform="matrix(1 0 0 -1 -0.0151 473.9233)">
		<stop  offset="0" style="stop-color:#AAC738"/>
		<stop  offset="1" style="stop-color:#00B4CB"/>
	</linearGradient>
	<path fill="url(#SVGID_6_)" d="M248.202,331.591l-33.561-37.177c-12.747-14.121,8.433-33.243,21.18-19.122l27.487,30.448
		L248.202,331.591z M309.278,292.052l-55.364,94.743c-9.598,16.425-34.232,2.027-24.636-14.396l55.364-94.744
		C294.24,261.229,318.876,275.627,309.278,292.052z"/>
	<g>
		<g>
			<g>
				<defs>
					<path id="SVGID_7_" d="M248.202,331.591l-33.561-37.177c-12.747-14.121,8.433-33.243,21.18-19.122l27.487,30.448
						L248.202,331.591z M309.278,292.052l-55.364,94.743c-9.598,16.425-34.232,2.027-24.636-14.396l55.364-94.744
						C294.24,261.229,318.876,275.627,309.278,292.052z"/>
				</defs>
				<clipPath id="SVGID_8_">
					<use xlink:href="#SVGID_7_"  overflow="visible"/>
				</clipPath>
				<g opacity="0.45" clip-path="url(#SVGID_8_)">
					<path fill="#231F20" d="M250.545,331.648l13.596-23.266l-24.738-27.403c-11.472-12.708-30.533,4.501-19.063,17.21
						L250.545,331.648z M305.513,296.063c8.638-14.782-13.534-27.74-22.174-12.958l-49.826,85.27
						c-8.639,14.782,13.533,27.739,22.173,12.958L305.513,296.063z M187.671,332.188c0-46.368,37.586-83.955,83.951-83.955
						s83.95,37.587,83.95,83.955s-37.585,83.955-83.95,83.955S187.671,378.556,187.671,332.188z"/>
				</g>
			</g>
		</g>
		<path fill="none" d="M248.202,331.591l-33.561-37.177c-12.747-14.121,8.433-33.243,21.18-19.122l27.487,30.448L248.202,331.591z"
			/>
		<path fill="none" d="M309.278,292.052l-55.364,94.743c-9.598,16.425-34.232,2.027-24.636-14.396l55.364-94.744
			C294.24,261.229,318.876,275.627,309.278,292.052z"/>
	</g>
	<path fill="none" stroke="#FFFFFF" stroke-width="1.873" stroke-miterlimit="3.8637" d="M248.202,331.591l-33.561-37.177
		c-12.747-14.121,8.433-33.243,21.18-19.122l27.487,30.448L248.202,331.591z M309.278,292.052l-55.364,94.743
		c-9.598,16.425-34.232,2.027-24.636-14.396l55.364-94.744C294.24,261.229,318.876,275.627,309.278,292.052z"/>
</g>
<path fill="#FFFFFF" d="M685.951,337.624l-0.002-38.461c0.037-2.323,0.769-4.249,2.189-5.777c1.42-1.529,3.307-2.322,5.66-2.38
	c2.112,0.065,3.823,0.615,5.133,1.649c1.307,1.034,2.213,2.163,2.717,3.387c1.322-1.618,2.908-3.016,4.758-4.191
	c1.853-1.178,3.892-1.794,6.119-1.852c2.098,0.032,3.943,0.774,5.539,2.229c1.594,1.454,2.434,3.431,2.518,5.929
	c-0.053,2.625-0.979,4.501-2.78,5.627c-1.804,1.127-4.166,2.069-7.088,2.829c-3.373,0.873-5.74,2.098-7.101,3.675
	c-1.359,1.577-2.014,4.313-1.965,8.206l0.002,19.131c-0.037,2.322-0.768,4.248-2.189,5.776c-1.42,1.529-3.307,2.322-5.659,2.379
	c-2.353-0.057-4.238-0.85-5.66-2.379S685.99,339.946,685.951,337.624z M388.635,359.36l-0.005-60.221
	c0.038-2.321,0.769-4.245,2.188-5.773c1.422-1.528,3.309-2.32,5.661-2.377c1.909,0.059,3.474,0.596,4.69,1.61
	c1.22,1.015,2.104,2.153,2.654,3.421c1.734-2.146,3.682-3.692,5.845-4.643c2.162-0.948,4.716-1.415,7.658-1.396
	c4.611,0.058,8.738,1.34,12.379,3.848c3.642,2.507,6.521,5.894,8.641,10.157c2.118,4.264,3.201,9.062,3.247,14.391
	c-0.045,5.33-1.127,10.127-3.246,14.392c-2.118,4.265-4.998,7.648-8.638,10.157c-3.642,2.506-7.768,3.787-12.38,3.846
	c-3.318-0.04-5.977-0.488-7.974-1.348c-1.996-0.856-3.672-1.885-5.026-3.081l0.001,17.017c-0.037,2.323-0.767,4.249-2.188,5.779
	c-1.421,1.528-3.309,2.321-5.66,2.379c-2.354-0.058-4.239-0.852-5.66-2.381C389.402,363.608,388.673,361.683,388.635,359.36z
	 M415.114,331.678c3.491-0.101,6.157-1.41,7.999-3.931c1.841-2.52,2.77-5.645,2.783-9.376c-0.016-3.727-0.943-6.849-2.784-9.366
	c-1.842-2.519-4.508-3.827-7.999-3.929c-3.492,0.102-6.158,1.41-7.999,3.929s-2.769,5.643-2.783,9.371
	c0.016,3.729,0.943,6.853,2.784,9.371C408.957,330.268,411.623,331.577,415.114,331.678z M497.51,299.146l0.003,38.474
	c-0.038,2.321-0.768,4.245-2.188,5.773c-1.421,1.527-3.309,2.319-5.66,2.376c-1.909-0.06-3.475-0.596-4.692-1.609
	c-1.222-1.015-2.108-2.154-2.666-3.421c-1.732,2.145-3.68,3.691-5.841,4.642c-2.161,0.949-4.712,1.414-7.653,1.396
	c-4.611-0.058-8.736-1.341-12.376-3.848c-3.64-2.508-6.52-5.895-8.638-10.157c-2.119-4.266-3.201-9.063-3.248-14.392
	c0.046-5.33,1.128-10.127,3.246-14.392c2.117-4.264,4.997-7.649,8.637-10.156c3.641-2.507,7.765-3.789,12.375-3.846
	c2.94-0.02,5.494,0.446,7.656,1.396c2.162,0.95,4.112,2.497,5.852,4.644c0.552-1.268,1.438-2.407,2.654-3.421
	c1.219-1.016,2.781-1.552,4.69-1.61c2.354,0.058,4.24,0.851,5.661,2.378C496.742,294.901,497.472,296.824,497.51,299.146z
	 M471.028,305.08c-3.491,0.102-6.157,1.411-7.998,3.932c-1.842,2.52-2.77,5.645-2.783,9.376c0.016,3.727,0.943,6.849,2.784,9.365
	c1.841,2.518,4.507,3.827,7.999,3.93c3.491-0.102,6.157-1.41,7.998-3.93c1.842-2.519,2.771-5.643,2.783-9.371
	c-0.015-3.729-0.943-6.853-2.784-9.37C477.187,306.491,474.521,305.182,471.028,305.08z M571.945,359.37l-0.004-60.221
	c0.037-2.32,0.768-4.245,2.188-5.773c1.422-1.527,3.309-2.319,5.661-2.377c1.908,0.061,3.474,0.597,4.691,1.61
	s2.104,2.155,2.654,3.421c1.733-2.145,3.682-3.691,5.844-4.642c2.162-0.949,4.715-1.414,7.658-1.396
	c4.61,0.058,8.737,1.341,12.379,3.848c3.641,2.508,6.521,5.894,8.641,10.157c2.117,4.266,3.201,9.063,3.246,14.393
	c-0.045,5.329-1.127,10.126-3.246,14.391c-2.117,4.264-4.998,7.649-8.637,10.156c-3.641,2.506-7.768,3.789-12.379,3.846
	c-3.32-0.039-5.978-0.488-7.976-1.346c-1.995-0.857-3.672-1.885-5.024-3.082v17.017c-0.037,2.322-0.767,4.249-2.188,5.778
	s-3.309,2.322-5.659,2.379c-2.354-0.057-4.24-0.85-5.662-2.38C572.714,363.618,571.982,361.692,571.945,359.37z M598.425,331.688
	c3.491-0.102,6.157-1.41,7.998-3.931c1.842-2.521,2.77-5.646,2.784-9.377c-0.016-3.726-0.942-6.848-2.784-9.365
	c-1.843-2.519-4.509-3.827-8-3.929c-3.49,0.101-6.156,1.409-7.998,3.929c-1.841,2.519-2.769,5.643-2.783,9.372
	c0.016,3.728,0.942,6.852,2.785,9.369C592.268,330.277,594.934,331.587,598.425,331.688z M673.173,323.522l-28.406-0.002
	c-0.105,1.821,0.733,3.7,2.52,5.636s5.146,2.981,10.078,3.14c2.574-0.061,4.849-0.487,6.82-1.28s3.715-1.586,5.229-2.379
	c1.513-0.793,2.867-1.221,4.063-1.281c1.813,0.03,3.344,0.65,4.592,1.866c1.246,1.214,1.896,2.843,1.949,4.888
	c-0.084,2.563-1.336,4.793-3.754,6.686c-2.418,1.894-5.496,3.361-9.234,4.404s-7.633,1.572-11.68,1.588
	c-5.666-0.059-10.549-1.341-14.646-3.848c-4.1-2.508-7.258-5.895-9.477-10.157c-2.219-4.265-3.34-9.063-3.367-14.392
	c0.041-5.108,1.223-9.803,3.545-14.078c2.322-4.277,5.539-7.715,9.652-10.313c4.112-2.599,8.877-3.933,14.291-4.003
	c5.197,0.076,9.694,1.367,13.498,3.874c3.801,2.506,6.739,5.773,8.817,9.803c2.078,4.03,3.131,8.365,3.158,13.01
	c-0.004,2.706-0.649,4.538-1.938,5.494C677.596,323.135,675.691,323.583,673.173,323.522z M644.764,312.757l20.356,0.001
	c-0.012-1.228-0.436-2.569-1.272-4.025c-0.836-1.456-2.015-2.716-3.533-3.78c-1.521-1.063-3.311-1.621-5.371-1.674
	c-2.063,0.052-3.852,0.609-5.371,1.674c-1.52,1.063-2.698,2.323-3.535,3.779C645.202,310.187,644.777,311.528,644.764,312.757z"/>
<g>
	
		<linearGradient id="SVGID_9_" gradientUnits="userSpaceOnUse" x1="500.7351" y1="140.8201" x2="567.7546" y2="140.8201" gradientTransform="matrix(1 0 0 -1 -0.0151 473.9233)">
		<stop  offset="0" style="stop-color:#AAC738"/>
		<stop  offset="1" style="stop-color:#00B4CB"/>
	</linearGradient>
	<path fill="url(#SVGID_9_)" d="M503.219,307.065l22.17,24.561l9.568-16.375l-18.322-20.298
		C508.552,286.001,495.136,298.114,503.219,307.065z M528.823,369.8l37.532-64.229c6.086-10.413-9.52-19.532-15.605-9.12
		l-37.531,64.231C507.133,371.094,522.738,380.213,528.823,369.8z"/>
	<g opacity="0.45">
		<g>
			<g>
				<defs>
					<path id="SVGID_10_" d="M503.219,307.065l22.17,24.561l9.568-16.375l-18.322-20.298
						C508.552,286.001,495.136,298.114,503.219,307.065z M528.823,369.8l37.532-64.229c6.086-10.413-9.52-19.532-15.605-9.12
						l-37.531,64.231C507.133,371.094,522.738,380.213,528.823,369.8z"/>
				</defs>
				<clipPath id="SVGID_11_">
					<use xlink:href="#SVGID_10_"  overflow="visible"/>
				</clipPath>
				<g clip-path="url(#SVGID_11_)">
					<path fill="#231F20" d="M527.088,332.734l9.216-15.772l-16.771-18.578c-7.776-8.614-20.701,3.053-12.923,11.667
						L527.088,332.734z M564.352,308.609c5.854-10.021-9.176-18.806-15.031-8.784l-33.78,57.808
						c-5.854,10.021,9.177,18.807,15.031,8.784L564.352,308.609z M484.463,333.1c0-31.436,25.479-56.917,56.912-56.917
						c31.435,0,56.914,25.481,56.914,56.917c0,31.435-25.479,56.917-56.914,56.917C509.942,390.017,484.463,364.534,484.463,333.1z"
						/>
				</g>
			</g>
		</g>
		<path fill="none" d="M503.219,307.065l22.17,24.561l9.568-16.375l-18.322-20.298C508.552,286.001,495.136,298.114,503.219,307.065
			z"/>
		<path fill="none" d="M528.823,369.8l37.532-64.229c6.086-10.413-9.52-19.532-15.605-9.12l-37.531,64.231
			C507.133,371.094,522.738,380.213,528.823,369.8z"/>
	</g>
</g>
<linearGradient id="SVGID_12_" gradientUnits="userSpaceOnUse" x1="157.6809" y1="141.7341" x2="364.51" y2="141.7341" gradientTransform="matrix(1 0 0 -1 -0.0151 473.9233)">
	<stop  offset="0" style="stop-color:#AAC738"/>
	<stop  offset="1" style="stop-color:#00B4CB"/>
</linearGradient>
<path fill="url(#SVGID_12_)" d="M261.08,435.605c-57.114,0-103.414-46.3-103.414-103.416c0-57.115,46.3-103.416,103.414-103.416
	c57.115,0,103.415,46.301,103.415,103.416C364.495,389.306,318.195,435.605,261.08,435.605z M261.08,430.681
	c54.396,0,98.49-44.097,98.49-98.491c0-54.396-44.095-98.491-98.49-98.491c-54.395,0-98.489,44.096-98.489,98.491
	C162.591,386.585,206.686,430.681,261.08,430.681z"/>
</svg>
