<?xml version="1.0" encoding="utf-8"?>
<!-- Generator: Adobe Illustrator 19.0.0, SVG Export Plug-In . SVG Version: 6.00 Build 0)  -->
<svg version="1.1" id="Layer_1" xmlns="http://www.w3.org/2000/svg" xmlns:xlink="http://www.w3.org/1999/xlink" x="0px" y="0px"
	 viewBox="0 0 97 96" style="enable-background:new 0 0 97 96;" xml:space="preserve">
<style type="text/css">
	.st0{fill:url(#SVGID_1_);}
</style>
<linearGradient id="SVGID_1_" gradientUnits="userSpaceOnUse" x1="8.8643" y1="53.2493" x2="87.5109" y2="53.2493" gradientTransform="matrix(1 0 0 -1 -2.000000e-002 102.0947)">
	<stop  offset="0" style="stop-color:#ABC738"/>
	<stop  offset="1" style="stop-color:#00B4CB"/>
</linearGradient>
<path class="st0" d="M60.2,9.1l-12.6,34h18.9L32.9,88.6l12.8-34.2H26.8L60.2,9.1z M26.5,81.8C-5.6,60.7,8.8,9.3,48.3,9.4
	c4.2,0,4.2,6.4,0,6.3C15.1,15.6,3,58.8,30,76.5C33.5,78.9,30,84.2,26.5,81.8z M66.3,13.8C105,33.8,86.7,93.3,43.4,88
	c-4.2-0.5-3.4-6.8,0.8-6.3c36.3,4.5,51.8-45.5,19.3-62.3C59.7,17.5,62.6,11.8,66.3,13.8z"/>
</svg>
