<?xml version="1.0" encoding="utf-8"?>
<!-- Generator: Adobe Illustrator 23.0.3, SVG Export Plug-In . SVG Version: 6.00 Build 0)  -->
<svg version="1.1" id="Layer_1" xmlns="http://www.w3.org/2000/svg" xmlns:xlink="http://www.w3.org/1999/xlink" x="0px" y="0px"
	 viewBox="0 0 97 96" style="enable-background:new 0 0 97 96;" xml:space="preserve">
<style type="text/css">
	.st0{fill:url(#SVGID_1_);}
</style>
<linearGradient id="SVGID_1_" gradientUnits="userSpaceOnUse" x1="19.2617" y1="50" x2="77.7383" y2="50" gradientTransform="matrix(1 0 0 -1 0 98)">
	<stop  offset="0" style="stop-color:#AAC738"/>
	<stop  offset="1" style="stop-color:#00B4CB"/>
</linearGradient>
<path class="st0" d="M45.4,64c-1.3,2-5,7.9-5,10.3c0,4,3.3,7.3,7.3,7.3c4,0,7.2-3.5,7.2-7.5c-0.7-1.2-4-3.4-5.2-4.4
	C48.1,68.2,46.5,66.4,45.4,64z M57.1,35c5.1-30.2,20.6,17.2,20.6,25.3c0,16.1-13.1,29.2-29.2,29.2c-16.1,0-29.2-13.1-29.2-29.2
	c0-15.8,21.8-43.7,28.8-51.8c7.2-8.2,6.3,9.8,6.4,11.2C54.7,25,55.4,30.1,57.1,35z M47.5,20.7c-8.9,11.5-21.1,29.8-21.1,39.7
	c0,6.4,2.7,12.2,7.1,16.3c-0.1-0.7-0.2-1.5-0.2-2.3c0-2.4,1.1-5.1,2.2-7.3c2.7-5.5,6.3-10.7,10.1-15.5c2.9-3.7,7.4-1.4,6.3,3.1
	c-3.1,12,10.4,10.5,10.4,19.7c0,1.3-0.2,2.6-0.5,3.7c5.4-4,8.9-10.5,8.9-17.7c0-4.3-2.9-13.1-6.9-21.3l-0.2,1.2
	c-0.4,3.3-0.8,16.6-7.7,8C49.7,40.4,48,30.5,47.5,20.7z"/>
</svg>
