<?xml version="1.0" encoding="utf-8"?>
<!-- Generator: Adobe Illustrator 23.0.3, SVG Export Plug-In . SVG Version: 6.00 Build 0)  -->
<svg version="1.1" id="Layer_1" xmlns="http://www.w3.org/2000/svg" xmlns:xlink="http://www.w3.org/1999/xlink" x="0px" y="0px"
	 viewBox="0 0 97 96" style="enable-background:new 0 0 97 96;" xml:space="preserve">
<style type="text/css">
	.st0{fill:#B2B2B2;}
</style>
<g>
	<path class="st0" d="M70.3,19.1h-0.9v-1.4c0-1.7-1.2-3.4-2.9-3.7c-2.2-0.4-4.1,1.4-4.1,3.6v1.5h0.1c-0.6,0-1.1,0.5-1.1,1.1V25
		c0,0.6,0.5,1.1,1.1,1.1h7.8c0.6,0,1.1-0.5,1.1-1.1v-4.8C71.4,19.6,70.9,19.1,70.3,19.1z M69.5,65c6.5-9.5,11.1-22.1,11.1-36.5
		c0-1-0.6-1.9-1.5-2.3l-3.4-1.4c-1.8,3.5-5.4,5.9-9.7,5.9c-6,0-10.8-4.9-10.8-10.8c0-1.2,0.2-2.3,0.5-3.4l-5.8-2.4
		c-0.6-0.2-1.3-0.2-1.9,0L18.7,26.3c-0.9,0.4-1.5,1.3-1.5,2.3c0,14.8,4.8,27.8,11.7,37.4C40.1,54.9,57.9,54.6,69.5,65z M49.8,81.9
		c5.4-2.1,11-6.3,15.8-11.9c-9.1-8.6-23.5-8.5-32.4,0.5c-0.1,0.1-0.2,0.2-0.4,0.3c4.7,5.2,10,9.1,15.1,11.1
		C48.6,82.1,49.2,82.1,49.8,81.9z M80.5,21.8c2.7,1.1,4.5,3.8,4.5,6.7C85,62.2,64.3,81,51.3,86.4c-1.8,0.7-3.8,0.7-5.6,0
		C29.4,79.6,12,58.7,12,28.5c0-3,1.8-5.6,4.5-6.7L45.7,9.6c1.8-0.7,3.8-0.7,5.6,0l6.5,2.7c2.8-2.9,7.2-4.2,11.8-2.5
		c4.2,1.5,6.8,5.7,6.8,10.1l0,0.1L80.5,21.8z M63.4,17.7c0-1.9,1.9-3.5,4-2.8c1.2,0.4,2,1.6,2,2.9v1.4h-6
		C63.4,19.1,63.4,17.7,63.4,17.7z M49.7,30.1c7.2,0,13,5.8,13,13c0,7.2-5.8,13-13,13c-7.2,0-13.1-5.8-13.1-13
		C36.6,36,42.5,30.1,49.7,30.1z M49.7,36.3c-3.8,0-6.8,3.1-6.8,6.8c0,3.8,3.1,6.8,6.8,6.8c3.8,0,6.8-3.1,6.8-6.8
		C56.5,39.4,53.4,36.3,49.7,36.3z"/>
</g>
</svg>
