<?xml version="1.0" encoding="utf-8"?>
<!-- Generator: Adobe Illustrator 19.0.0, SVG Export Plug-In . SVG Version: 6.00 Build 0)  -->
<svg version="1.1" id="Layer_1" xmlns="http://www.w3.org/2000/svg" xmlns:xlink="http://www.w3.org/1999/xlink" x="0px" y="0px"
	 viewBox="0 0 29.1 28.2" style="enable-background:new 0 0 29.1 28.2;" xml:space="preserve">
<style type="text/css">
	.st0{fill:#CBD157;}
</style>
<path id="XMLID_119_" class="st0" d="M3.2,9.4c2-4.3,6.3-7.3,11.3-7.3c6.9,0,12.5,5.6,12.5,12.5c0,6.9-5.6,12.5-12.5,12.5
	c-5,0-9.4-3-11.3-7.3c-0.6-1.2,1.3-2,1.8-0.8c1.7,3.6,5.3,6.1,9.5,6.1c5.8,0,10.5-4.7,10.5-10.5c0-5.8-4.7-10.5-10.5-10.5
	c-4.2,0-7.9,2.5-9.5,6.1C4.5,11.4,2.7,10.6,3.2,9.4z M14.5,10.4c5.1,5.1,5.1,3.4,0,8.5c-0.9,0.9-2.4-0.5-1.4-1.4l1.8-1.8H3.7
	c-1.3,0-1.3-2,0-2h11.2l-1.8-1.8C12.1,10.8,13.5,9.4,14.5,10.4z"/>
</svg>
