<?xml version="1.0" encoding="utf-8"?>
<!-- Generator: Adobe Illustrator 19.0.0, SVG Export Plug-In . SVG Version: 6.00 Build 0)  -->
<svg version="1.1" id="Layer_1" xmlns="http://www.w3.org/2000/svg" xmlns:xlink="http://www.w3.org/1999/xlink" x="0px" y="0px"
	 viewBox="-255 347 100 100" style="enable-background:new -255 347 100 100;" xml:space="preserve">
<style type="text/css">
	.st0{fill:#B2B2B2;}
</style>
<path class="st0" d="M-227.1,370.4l2.6,4.2c4.7,7.4,9.8,14.3,15.4,20.5c0.3-0.7,0.7-1.4,1.4-2.1c3.1-3.1,8.1-3.1,11.2,0
	c3.1,3.1,3.1,8.1,0,11.2c-0.7,0.7-1.4,1.1-2.1,1.4c6.4,5.8,13.2,10.9,20.5,15.4l4.3,2.6l-3.6,3.6c-7.1,7.1-16.6,11-26.6,11
	c-10.1,0-19.5-3.9-26.6-11s-11-16.6-11-26.6s3.9-19.5,11-26.6L-227.1,370.4z M-228.2,383.3c-8.2,11.6-7.2,27.8,3.2,38.2
	c5.6,5.6,13.1,8.7,21,8.7c6.2,0,12.2-1.9,17.2-5.4C-202.9,414.2-216.8,400.2-228.2,383.3z M-179.8,370.7l4.5-4.5
	c3.8-3.8,9.4,1.9,5.7,5.7l-4.5,4.5C-178,380.1-183.6,374.5-179.8,370.7z M-193.3,384.1l4.5-4.5c3.8-3.8,9.4,1.9,5.7,5.7l-4.5,4.5
	C-191.4,393.5-197,387.9-193.3,384.1z"/>
</svg>
