<?xml version="1.0" encoding="utf-8"?>
<!-- Generator: Adobe Illustrator 23.0.3, SVG Export Plug-In . SVG Version: 6.00 Build 0)  -->
<svg version="1.1" id="Layer_1" xmlns="http://www.w3.org/2000/svg" xmlns:xlink="http://www.w3.org/1999/xlink" x="0px" y="0px"
	 viewBox="0 0 97 96" style="enable-background:new 0 0 97 96;" xml:space="preserve">
<style type="text/css">
	.st0{fill:#FFFFFF;}
	.st1{fill:url(#SVGID_2_);}
	.st2{clip-path:url(#SVGID_5_);}
	.st3{fill:url(#SVGID_6_);}
	.st4{fill:none;}
</style>
<g>
	<g>
		<path class="st0" d="M59.8,42.3c-0.3-0.3-0.6-0.7-0.7-1.3C59.2,41.4,59.4,41.9,59.8,42.3z M61.3,42.7L61.3,42.7
			c-0.7,0-1.2-0.2-1.5-0.5C60.3,42.6,60.8,42.8,61.3,42.7z M37,34.5c2.6-3.8,7-6.3,12-6.3c6.6,0,12.1,4.3,13.9,10.3
			c6.2,0.8,11.8,5.7,11.8,12.4c0,7.1-5.7,12.8-12.8,12.8h-4.7c-2.9,0-2.9-4.4,0-4.4h4.7c4.7,0,8.5-3.8,8.5-8.5
			c0-4.4-4.2-8.1-9.1-8.2c-0.5,0-1.1-0.1-1.5-0.5s-0.7-0.9-0.7-1.4c-0.9-4.7-5.1-8.3-10-8.3c-3.7,0-7,2-8.8,4.9
			c0,0.6-0.4,1.2-1.2,1.4c-0.5,0.2-1.1,0.3-1.6,0.1c-0.2,0-0.4-0.1-0.7-0.1c-5.7,0-10.2,4.6-10.2,10.2c0,5.7,4.6,10.2,10.2,10.2h3.7
			c2.9,0,2.9,4.4,0,4.4h-3.7c-8.1,0-14.6-6.5-14.6-14.6s6.5-14.6,14.6-14.6L37,34.5z"/>
		<path class="st0" d="M46.3,65.5V51.3h-3.7c-1.3-0.1-2-1-2-2c0-0.4,0.2-0.9,0.5-1.4c1.9-2.2,3.8-4.5,5.7-6.7
			c0.5-0.6,1.1-0.9,1.6-0.9s1.2,0.3,1.6,0.8c1.9,2.4,4,4.7,5.9,7c0.3,0.3,0.3,0.7,0.3,1.1c0,1-0.8,1.9-2,2h-3.7v14.2
			C50.7,68.4,46.3,68.4,46.3,65.5z"/>
	</g>
	<g>
		<g>
			
				<linearGradient id="SVGID_2_" gradientUnits="userSpaceOnUse" x1="4.775" y1="50" x2="92.225" y2="50" gradientTransform="matrix(1 0 0 -1 0 98)">
				<stop  offset="0" style="stop-color:#ABC738"/>
				<stop  offset="1" style="stop-color:#00B4CB"/>
			</linearGradient>
			<path id="SVGID_1_" class="st1" d="M20.7,75.8c15.4,15.4,40.3,15.4,55.7,0s15.4-40.3,0-55.7s-40.3-15.4-55.7,0
				S5.3,60.4,20.7,75.8z M17.6,78.9C0.5,61.8,0.5,34.1,17.6,17C34.7,0,62.3,0,79.4,17c17.1,17.1,17.1,44.8,0,61.8
				C62.3,96,34.7,96,17.6,78.9z"/>
		</g>
		<g>
			<defs>
				<path id="SVGID_3_" d="M20.7,75.8c15.4,15.4,40.3,15.4,55.7,0s15.4-40.3,0-55.7s-40.3-15.4-55.7,0S5.3,60.4,20.7,75.8z
					 M17.6,78.9C0.5,61.8,0.5,34.1,17.6,17C34.7,0,62.3,0,79.4,17c17.1,17.1,17.1,44.8,0,61.8C62.3,96,34.7,96,17.6,78.9z"/>
			</defs>
			<clipPath id="SVGID_5_">
				<use xlink:href="#SVGID_3_"  style="overflow:visible;"/>
			</clipPath>
			<g class="st2">
				<g>
					<g>
						
							<linearGradient id="SVGID_6_" gradientUnits="userSpaceOnUse" x1="4.2" y1="50.0313" x2="92.8" y2="50.0313" gradientTransform="matrix(1 0 0 -1 0 98)">
							<stop  offset="0" style="stop-color:#ABC738"/>
							<stop  offset="1" style="stop-color:#00B4CB"/>
						</linearGradient>
						<polygon id="SVGID_4_" class="st3" points="4.2,3.7 92.8,3.7 92.8,92.2 4.2,92.2 						"/>
					</g>
				</g>
			</g>
		</g>
	</g>
	<path class="st4" d="M20.7,75.8c15.4,15.4,40.3,15.4,55.7,0s15.4-40.3,0-55.7s-40.3-15.4-55.7,0S5.3,60.4,20.7,75.8z"/>
	<path class="st4" d="M17.6,78.9C0.5,61.8,0.5,34.1,17.6,17C34.7,0,62.3,0,79.4,17c17.1,17.1,17.1,44.8,0,61.8
		C62.3,96,34.7,96,17.6,78.9z"/>
</g>
</svg>
