<?xml version="1.0" encoding="utf-8"?>
<!-- Generator: Adobe Illustrator 19.0.0, SVG Export Plug-In . SVG Version: 6.00 Build 0)  -->
<svg version="1.1" id="Layer_1" xmlns="http://www.w3.org/2000/svg" xmlns:xlink="http://www.w3.org/1999/xlink" x="0px" y="0px"
	 viewBox="-255 347 100 100" style="enable-background:new -255 347 100 100;" xml:space="preserve">
<style type="text/css">
	.st0{fill:#B2B2B2;}
</style>
<path class="st0" d="M-223.5,375.2c7.1-11.1,14.2-20.3,14.2-20.3c1.8-2.3,4.6-2.3,6.3,0c0,0,7.1,9.2,14.2,20.3
	c6.8,10.7,14.6,24.6,14.6,33.7c0,17.6-14.3,31.9-31.9,31.9s-31.9-14.3-31.9-31.9C-238.1,399.8-230.3,385.9-223.5,375.2z
	 M-216.8,379.5c-7.2,11.2-13.3,23.1-13.3,29.4c0,13.2,10.7,23.9,23.9,23.9s23.9-10.7,23.9-23.9c0-10.7-16.7-35-23.9-44.8
	C-208.8,367.7-212.8,373.3-216.8,379.5z M-223.1,410.5c0-6.3,3.6-11.7,8.9-14.3c-2.3,2.8-3.8,6.3-3.8,10.3c0,8.8,7.1,15.9,15.9,15.9
	c2.5,0,4.9-0.6,7-1.6c-2.9,3.4-7.3,5.6-12.1,5.6C-216,426.4-223.1,419.3-223.1,410.5z"/>
</svg>
