<?xml version="1.0" encoding="utf-8"?>
<!-- Generator: Adobe Illustrator 19.0.0, SVG Export Plug-In . SVG Version: 6.00 Build 0)  -->
<svg version="1.1" id="Layer_1" xmlns="http://www.w3.org/2000/svg" xmlns:xlink="http://www.w3.org/1999/xlink" x="0px" y="0px"
	 viewBox="-271 395.2 52.6 50.7" style="enable-background:new -271 395.2 52.6 50.7;" xml:space="preserve">
<style type="text/css">
	.st0{fill:url(#SVGID_2_);}
	.st1{clip-path:url(#SVGID_5_);}
	.st2{fill:url(#SVGID_6_);}
	.st3{fill:none;}
</style>
<g>
	<g>
		
			<linearGradient id="SVGID_2_" gradientUnits="userSpaceOnUse" x1="-264.95" y1="419.88" x2="-224.85" y2="419.88" gradientTransform="matrix(1 0 0 -1 0 840.27)">
			<stop  offset="0" style="stop-color:#ABC738"/>
			<stop  offset="1" style="stop-color:#00B4CB"/>
		</linearGradient>
		<path id="SVGID_1_" class="st0" d="M-257.7,433.1c7,7,18.5,7,25.5,0s7-18.5,0-25.5s-18.5-7-25.5,0
			C-264.7,414.7-264.7,426.1-257.7,433.1z M-259.1,434.6c-7.8-7.8-7.8-20.5,0-28.4c7.8-7.8,20.5-7.8,28.4,0c7.8,7.8,7.8,20.5,0,28.4
			C-238.6,442.4-251.3,442.4-259.1,434.6z"/>
	</g>
	<g>
		<defs>
			<path id="SVGID_3_" d="M-257.7,433.1c7,7,18.5,7,25.5,0s7-18.5,0-25.5s-18.5-7-25.5,0C-264.7,414.7-264.7,426.1-257.7,433.1z
				 M-259.1,434.6c-7.8-7.8-7.8-20.5,0-28.4c7.8-7.8,20.5-7.8,28.4,0c7.8,7.8,7.8,20.5,0,28.4C-238.6,442.4-251.3,442.4-259.1,434.6
				z"/>
		</defs>
		<clipPath id="SVGID_5_">
			<use xlink:href="#SVGID_3_"  style="overflow:visible;"/>
		</clipPath>
		<g class="st1">
			<g>
				<g>
					
						<linearGradient id="SVGID_6_" gradientUnits="userSpaceOnUse" x1="-265.2" y1="419.88" x2="-224.6" y2="419.88" gradientTransform="matrix(1 0 0 -1 0 840.27)">
						<stop  offset="0" style="stop-color:#ABC738"/>
						<stop  offset="1" style="stop-color:#00B4CB"/>
					</linearGradient>
					<polygon id="SVGID_4_" class="st2" points="-265.2,400.1 -224.6,400.1 -224.6,440.7 -265.2,440.7 					"/>
				</g>
			</g>
		</g>
	</g>
</g>
<circle class="st3" cx="-244.9" cy="420.4" r="18"/>
<circle class="st3" cx="-244.9" cy="420.4" r="20"/>
</svg>
