<?xml version="1.0" encoding="utf-8"?>
<!-- Generator: Adobe Illustrator 16.0.0, SVG Export Plug-In . SVG Version: 6.00 Build 0)  -->
<!DOCTYPE svg PUBLIC "-//W3C//DTD SVG 1.1//EN" "http://www.w3.org/Graphics/SVG/1.1/DTD/svg11.dtd">
<svg version="1.1" id="Layer_1" xmlns="http://www.w3.org/2000/svg" xmlns:xlink="http://www.w3.org/1999/xlink" x="0px" y="0px"
	 width="100px" height="100px" viewBox="0 0 100 100" enable-background="new 0 0 100 100" xml:space="preserve">
<path d="M617.135-0.112L601.187,42.81h23.794l-42.262,57.302l16.16-43.133h-23.795L617.135-0.112z M574.683,91.611
	c-40.56-26.705-22.39-91.531,27.436-91.391c5.333,0.015,5.311,8.015-0.022,8c-41.813-0.118-57.057,54.295-23.014,76.709
	C583.536,87.863,579.137,94.545,574.683,91.611z M624.902,5.763c48.83,25.254,25.645,100.354-28.937,93.652
	c-5.294-0.649-4.318-8.59,0.976-7.94c45.726,5.614,65.313-57.388,24.285-78.605C616.489,10.419,620.164,3.313,624.902,5.763z"/>
<path d="M-94.085,164.882l2.641,4.191c4.681,7.431,9.829,14.27,15.414,20.522c0.256-0.707,0.673-1.413,1.359-2.099
	c3.086-3.087,8.09-3.087,11.177,0c3.087,3.086,3.087,8.09,0,11.176c-0.699,0.699-1.417,1.129-2.138,1.381
	c6.384,5.793,13.219,10.941,20.509,15.359l4.308,2.609l-3.559,3.566c-7.105,7.105-16.558,11.014-26.607,11.014
	c-10.051,0-19.498-3.908-26.6-11.014c-7.11-7.105-11.023-16.557-11.023-26.605s3.909-19.504,11.016-26.605L-94.085,164.882z
	 M-95.212,177.771c-8.248,11.599-7.183,27.835,3.211,38.229c5.616,5.611,13.08,8.697,21.02,8.697c6.232,0,12.18-1.904,17.159-5.441
	C-69.876,208.651-83.767,194.732-95.212,177.771z M-46.84,165.185l4.544-4.545c3.771-3.771,9.429,1.887,5.657,5.657l-4.544,4.544
	C-44.954,174.612-50.611,168.956-46.84,165.185z M-60.274,178.62l4.544-4.545c3.771-3.771,9.428,1.886,5.657,5.656l-4.545,4.545
	C-58.39,188.048-64.046,182.392-60.274,178.62z"/>
<path d="M56.043,73.492l9.171,9.172l17.671-17.672c3.771-3.771,9.429,1.885,5.658,5.656c-7.022,7.021-20.506,26.152-26.158,20.5
	l-12-12C46.614,75.377,52.271,69.721,56.043,73.492z M18.214,32.321h47v-16.5h-47V32.321z M65.214,64.32h-47v16.5h24.491
	c5.332,0,5.332,8,0,8H18.214c-4.419,0-8-3.582-8-8v-65c0-4.418,3.581-8,8-8h47c4.419,0,8,3.582,8,8v50.166c0,5.334-8,5.334-8,0
	V64.32z M18.214,56.32h47v-16h-47V56.32z"/>
<path d="M160.568,67.967c-1.436,2.217-5.561,8.883-5.561,11.529c0,4.517,3.661,8.178,8.178,8.178c4.518,0,8.096-3.871,8.096-8.388
	c-0.84-1.392-4.482-3.766-5.802-4.921C163.56,72.684,161.746,70.622,160.568,67.967z M173.677,35.477
	c5.724-33.853,23.101,19.296,23.101,28.354c0,18.103-14.675,32.777-32.777,32.777c-18.104,0-32.778-14.675-32.778-32.777
	c0-17.662,24.401-48.939,32.298-58.029c8.019-9.23,7.062,10.932,7.133,12.538C170.916,24.233,171.734,29.908,173.677,35.477z
	 M162.827,19.346c-9.952,12.929-23.605,33.357-23.605,44.484c0,7.205,3.076,13.693,7.986,18.221c-0.132-0.832-0.2-1.686-0.2-2.555
	c0-2.67,1.185-5.668,2.414-8.193c2.992-6.146,7.1-12.006,11.311-17.354c3.234-4.107,8.309-1.607,7.02,3.461
	c-3.421,13.451,11.612,11.811,11.612,22.086c0,1.451-0.19,2.858-0.55,4.197c6.048-4.519,9.963-11.734,9.963-19.863
	c0-4.823-3.297-14.74-7.691-23.839l-0.177,1.371c-0.46,3.73-0.948,18.563-8.577,8.921C165.368,41.481,163.426,30.353,162.827,19.346
	z"/>
<path d="M-76,82.214V56.138l-6.732-0.007c-2.337-0.134-3.708-1.828-3.708-3.667c0-0.77,0.341-1.735,1.008-2.507
	c3.514-4.075,7.049-8.178,10.452-12.354c0.881-1.08,2.04-1.596,3.012-1.596c0.939,0,2.13,0.467,3.016,1.555
	c3.515,4.313,7.329,8.599,10.784,12.91c0.478,0.599,0.608,1.374,0.608,2.013c0,1.775-1.383,3.565-3.687,3.666L-68,56.146v26.068
	C-68,87.547-76,87.547-76,82.214z M-93.082,25.386c4.807-7.014,12.935-11.599,22.076-11.599c12.019,0,22.181,7.913,25.574,18.811
	c11.337,1.451,21.629,10.522,21.629,22.819c0,12.988-10.53,23.518-23.519,23.518H-56c-5.334,0-5.334-8,0-8h8.679
	c8.57,0,15.519-6.948,15.519-15.518c0-8.073-7.66-14.937-16.635-15.022c-0.991,0.057-1.997-0.219-2.775-0.871
	c-0.78-0.646-1.233-1.584-1.357-2.566c-1.682-8.645-9.301-15.17-18.436-15.17c-6.815,0-12.81,3.625-16.062,9.03
	c-0.09,1.153-0.795,2.155-2.236,2.596c-0.908,0.445-1.932,0.466-2.863,0.174c-0.392-0.045-0.808-0.113-1.249-0.207
	c-10.372,0-18.781,8.408-18.781,18.782c0,10.373,8.409,18.781,18.781,18.781h6.877c5.333,0,5.333,8,0,8h-6.877
	c-14.791,0-26.781-11.99-26.781-26.781c0-14.792,11.99-26.782,26.781-26.782L-93.082,25.386z"/>
<path d="M284.678,28.209c7.078-11.121,14.156-20.286,14.156-20.286c1.775-2.296,4.559-2.296,6.332,0c0,0,7.08,9.166,14.158,20.286
	c6.791,10.67,14.574,24.593,14.574,33.692c0,17.616-14.281,31.897-31.898,31.897c-17.615,0-31.898-14.281-31.898-31.897
	C270.102,52.803,277.885,38.88,284.678,28.209z M291.426,32.505c-7.156,11.244-13.324,23.087-13.324,29.396
	c0,13.198,10.701,23.897,23.898,23.897c13.199,0,23.898-10.699,23.898-23.897c0-10.687-16.684-34.967-23.898-44.845
	C299.355,20.677,295.391,26.275,291.426,32.505z M285.104,63.504c0-6.278,3.639-11.707,8.924-14.29
	c-2.342,2.768-3.754,6.348-3.754,10.258c0,8.779,7.119,15.896,15.898,15.896c2.502,0,4.869-0.578,6.975-1.607
	c-2.916,3.449-7.275,5.64-12.146,5.64C292.221,79.401,285.104,72.284,285.104,63.504z"/>
<path d="M419,10c-4.422,0-8,3.578-8,8v48c0,4.422,3.578,8,8,8h24v4h-16l-12,12h72l-12-12h-16v-4h24c4.422,0,8-3.578,8-8V18
	c0-4.422-3.578-8-8-8H419z M419,18h64v48h-64V18z M442,26l-15,15l15,15l5-5l-10-10l10-10L442,26z M460,26l-5,5l10,10l-10,10l5,5
	l15-15L460,26z"/>
<path d="M117.356,175.069c7.915-17.143,25.263-29.051,45.4-29.051c27.604,0,49.982,22.377,49.982,49.981
	s-22.378,49.982-49.982,49.982c-20.138,0-37.485-11.909-45.4-29.051c-2.235-4.843,5.027-8.196,7.263-3.354
	c6.656,14.416,21.234,24.405,38.138,24.405c23.187,0,41.982-18.796,41.982-41.982s-18.796-41.981-41.982-41.981
	c-16.903,0-31.481,9.989-38.138,24.404C122.384,183.265,115.121,179.911,117.356,175.069z M162.375,179.029
	c20.318,20.319,20.318,13.623,0,33.941c-3.771,3.771-9.428-1.886-5.656-5.657l7.313-7.313h-44.771c-5.333,0-5.333-8,0-8h44.771
	l-7.313-7.313C152.947,180.915,158.604,175.259,162.375,179.029z"/>
<g>
	<path fill="#020405" d="M302,148.646c-21.752,0-39.463,17.711-39.463,39.461v14.183h0.123c-0.078,0.524-0.123,1.063-0.123,1.603
		c0,5.211,3.328,9.65,8.016,11.223c1.664,15.847,15.168,28.24,31.447,28.24s29.783-12.394,31.447-28.24
		c4.686-1.572,8.016-6.012,8.016-11.223c0-0.539-0.045-1.078-0.123-1.603h0.123v-14.183
		C341.463,166.356,323.752,148.646,302,148.646z M302,156.537c17.48,0,31.57,14.089,31.57,31.569v4.563
		c-0.123-0.046-0.246-0.077-0.369-0.123c-1.557-7.075-7.877-12.332-15.416-12.332c-2.174,0-3.947-1.772-3.947-3.946v-3.946h-7.893
		v3.946c0,2.174-1.771,3.946-3.945,3.946h-15.785c-7.539,0-13.859,5.257-15.416,12.332c-0.123,0.046-0.246,0.077-0.369,0.123v-4.563
		C270.43,170.626,284.52,156.537,302,156.537z M309.893,185.024c2.096,1.881,4.855,3.082,7.893,3.082
		c4.348,0,7.893,3.546,7.893,7.893v3.947h3.947c2.174,0,3.945,1.772,3.945,3.945c0,2.174-1.771,3.947-3.945,3.947h-3.947v3.945
		c0,13.057-10.621,23.678-23.678,23.678s-23.678-10.621-23.678-23.678v-3.945h-3.947c-2.174,0-3.945-1.773-3.945-3.947
		c0-2.173,1.771-3.945,3.945-3.945h3.947v-3.947c0-4.347,3.545-7.893,7.893-7.893H302
		C305.037,188.106,307.795,186.905,309.893,185.024z M290.16,199.946c-2.174,0-3.945,1.772-3.945,3.945
		c0,2.174,1.771,3.947,3.945,3.947s3.947-1.773,3.947-3.947C294.107,201.719,292.334,199.946,290.16,199.946z M313.838,199.946
		c-2.172,0-3.945,1.772-3.945,3.945c0,2.174,1.773,3.947,3.945,3.947c2.174,0,3.947-1.773,3.947-3.947
		C317.785,201.719,316.012,199.946,313.838,199.946z"/>
</g>
<path d="M65.746,180.254c8.697,8.696,8.697,22.797,0,31.493c-3.77,3.771-9.428-1.886-5.656-5.657c5.574-5.572,5.574-14.607,0-20.18
	C56.318,182.139,61.977,176.482,65.746,180.254z M41.844,196c0-4.504,3.652-8.156,8.156-8.156s8.156,3.652,8.156,8.156
	c0,4.505-3.652,8.156-8.156,8.156S41.844,200.505,41.844,196z M23.219,222.781c-14.789-14.791-14.789-38.771,0-53.561
	c3.771-3.771,9.43,1.885,5.658,5.656c-11.666,11.666-11.666,30.58,0,42.247C32.648,220.895,26.99,226.552,23.219,222.781z
	 M76.779,169.22c14.791,14.791,14.791,38.771,0,53.562c-3.77,3.771-9.428-1.887-5.656-5.657c11.666-11.667,11.666-30.581,0-42.247
	C67.352,171.105,73.01,165.449,76.779,169.22z M34.252,211.747c-8.697-8.696-8.697-22.797,0-31.493
	c3.771-3.771,9.428,1.885,5.658,5.656c-5.574,5.572-5.574,14.607,0,20.18C43.68,209.861,38.023,215.519,34.252,211.747z"/>
</svg>
