<?xml version="1.0" encoding="utf-8"?>
<!-- Generator: Adobe Illustrator 16.0.0, SVG Export Plug-In . SVG Version: 6.00 Build 0)  -->
<!DOCTYPE svg PUBLIC "-//W3C//DTD SVG 1.1//EN" "http://www.w3.org/Graphics/SVG/1.1/DTD/svg11.dtd">
<svg version="1.1" id="Layer_1" xmlns="http://www.w3.org/2000/svg" xmlns:xlink="http://www.w3.org/1999/xlink" x="0px" y="0px"
	 width="150px" height="150px" viewBox="0 0 150 150" enable-background="new 0 0 150 150" xml:space="preserve">
<path fill="#00ACC8" d="M80.395,31.293l-33.602,0.516c-11.983-0.105-13.907,4.593-13.35,15.41
	c-0.45,8.438,3.208,11.83,11.679,11.748H78.54c12.281,0.18,13.262-6.15,12.174-16.869C90.8,35.363,87.476,31.581,80.395,31.293z
	 M49.345,146.089c-29.034,0.307-46.115-15.767-44.342-46.367l0.027-1.296l1.664-62.324l0,0c2.575-15.624,12.729-31.85,40-31.679
	l33.906-0.517c23.001,0.637,37.357,17.677,37.51,36.95c0.504,5.737,0.225,12.593-1.596,19.222
	c26.184,1.366,28.031,10.303,28.608,40.574c-0.295,27.622-17.31,45.212-43.766,45.437H49.345z M117.599,87.166
	c-4.227-0.182-10.047,0.019-17.676,0.223L48.45,87.391c-13.717,0.3-16.028,3.493-16.078,13.264
	c-0.9,14.312,2.854,18.229,16.885,18.049h51.926c10.701-0.091,16.359-4.597,16.554-17.951
	C117.634,95.107,117.722,90.66,117.599,87.166z"/>
</svg>
