<?xml version="1.0" encoding="utf-8"?>
<!-- Generator: Adobe Illustrator 16.0.0, SVG Export Plug-In . SVG Version: 6.00 Build 0)  -->
<!DOCTYPE svg PUBLIC "-//W3C//DTD SVG 1.1//EN" "http://www.w3.org/Graphics/SVG/1.1/DTD/svg11.dtd">
<svg version="1.1" id="Layer_1" xmlns="http://www.w3.org/2000/svg" xmlns:xlink="http://www.w3.org/1999/xlink" x="0px" y="0px"
	 width="150px" height="150px" viewBox="0 0 150 150" enable-background="new 0 0 150 150" xml:space="preserve">
<g>
	<path fill="#00ACC8" d="M102.979,0h-6.242C86.26,0,78.367,0.723,73.059,2.16c-7.166,1.861-12.258,5.59-15.275,11.187
		c-1.863,3.295-2.869,8.601-3.012,15.923c-0.291,11.481-0.504,18.002-0.652,19.582H38.414v26.043h16.357V150h33.143
		c0.141,0-0.006-0.072,0-0.218v-45.834c0-11.475-0.436-21.162,0-29.054h21.299c0.576-3.875,2.229-21.092,2.373-25.821
		c0-0.152-0.076-0.222-0.215-0.222c0,0-21.166-0.004-23.457-0.435c0.135-0.854,0-1.788,0-2.791c0-1.007-0.721-12.412-0.436-13.562
		c0.285-1.573,0.793-2.788,1.514-3.66c1.143-0.427,2.436-0.788,3.865-1.065c1.289-0.149,2.873-0.223,4.74-0.223
		c1.145,0,2.871,0.073,5.168,0.223h8.605c0.139,0,0.215-0.076,0.215-0.223V0.212L102.979,0z"/>
</g>
</svg>
