<?xml version="1.0" encoding="utf-8"?>
<!-- Generator: Adobe Illustrator 16.0.0, SVG Export Plug-In . SVG Version: 6.00 Build 0)  -->
<!DOCTYPE svg PUBLIC "-//W3C//DTD SVG 1.1//EN" "http://www.w3.org/Graphics/SVG/1.1/DTD/svg11.dtd">
<svg version="1.1" id="Layer_1" xmlns="http://www.w3.org/2000/svg" xmlns:xlink="http://www.w3.org/1999/xlink" x="0px" y="0px"
	 width="150px" height="150px" viewBox="0 0 150 150" enable-background="new 0 0 150 150" xml:space="preserve">
<path fill="#00ACC8" d="M54.502,18.564c-15.349,0-36.324,3.146-36.324,26.214v60.45c0,21.446,19.353,26.21,34.798,26.21h44.047
	c19.45,0,34.799-6.193,34.799-31.744V50.313c0-25.551-14.775-31.748-36.322-31.748H54.502z M48.399,6.357h53.199
	c19.45,0,42.426,12.589,42.426,37.091v63.11c0,22.498-21.449,37.084-40.901,37.084H46.874c-17.354,0-40.898-12.773-40.898-34.608
	V40.962C5.976,17.801,30.955,6.357,48.399,6.357z M111.989,30.008c6.675,0,8.39,5.906,8.39,8.386c0,6.673-5.813,8.385-8.39,8.385
	c-6.576,0-8.391-5.816-8.391-8.385C103.599,33.82,107.512,30.008,111.989,30.008z M75,52.125c-12.204,0-23.264,9.246-23.264,22.873
	c0,11.826,9.059,22.884,23.264,22.884c10.201,0,23.261-9.059,23.261-22.884C98.261,63.37,87.202,52.125,75,52.125z M75,39.917
	c20.308,0,35.465,15.354,35.465,35.081c0,21.933-17.162,35.085-35.465,35.085c-20.31,0-35.465-15.159-35.465-35.085
	C39.535,55.271,54.69,39.917,75,39.917z"/>
</svg>
