<?xml version="1.0" encoding="utf-8"?>
<!-- Generator: Adobe Illustrator 16.0.0, SVG Export Plug-In . SVG Version: 6.00 Build 0)  -->
<!DOCTYPE svg PUBLIC "-//W3C//DTD SVG 1.1//EN" "http://www.w3.org/Graphics/SVG/1.1/DTD/svg11.dtd">
<svg version="1.1" id="Layer_1" xmlns="http://www.w3.org/2000/svg" xmlns:xlink="http://www.w3.org/1999/xlink" x="0px" y="0px"
	 width="150px" height="150px" viewBox="0 0 150 150" enable-background="new 0 0 150 150" xml:space="preserve">
<g>
	<path fill="#00ACC8" d="M147.606,29.934c-5.215,2.416-10.742,3.938-16.582,4.576l0.76-0.57c5.844-4.068,9.848-9.273,12.014-15.631
		c-6.232,3.178-11.568,5.275-16.016,6.289l-2.668,0.764c0-0.254-1.332-1.396-4.002-3.432c-4.697-3.684-10.225-5.715-16.58-6.1
		h-2.857c-9.145,0.764-16.449,4.514-21.908,11.25c-4.451,5.461-6.672,11.494-6.672,18.102c0,2.41,0.254,4.889,0.76,7.434
		C49.21,50.834,28.69,40.412,12.304,21.361c-2.924,4.443-4.383,9.211-4.383,14.291c0,2.922,0.508,5.971,1.525,9.148
		c1.906,6.604,5.844,12.064,11.814,16.385c-4.576-0.125-9.02-1.334-13.34-3.619c0.891,15.627,8.83,25.471,23.826,29.537
		c-2.031,0.889-4.32,1.332-6.861,1.332c-1.91,0-4.006-0.246-6.295-0.764c4.447,12.836,13.656,19.756,27.637,20.773
		c0,0.254-0.576,0.76-1.719,1.523c-10.547,7.496-22.164,11.242-34.869,11.242c-2.42,0-4.832-0.125-7.246-0.381
		c14.1,8.891,28.967,13.34,44.596,13.34c17.279,0,32.58-4.063,45.924-12.197c11.557-7.111,21.021-17.086,28.391-29.916
		c7.752-13.338,11.623-27.629,11.623-42.875v-3.43c0-0.129,1.336-1.334,4.004-3.621C141.509,38.193,145.062,34.127,147.606,29.934z"
		/>
</g>
</svg>
