<?xml version="1.0" encoding="utf-8"?>
<!-- Generator: Adobe Illustrator 16.0.0, SVG Export Plug-In . SVG Version: 6.00 Build 0)  -->
<!DOCTYPE svg PUBLIC "-//W3C//DTD SVG 1.1//EN" "http://www.w3.org/Graphics/SVG/1.1/DTD/svg11.dtd">
<svg version="1.1" id="Layer_1" xmlns="http://www.w3.org/2000/svg" xmlns:xlink="http://www.w3.org/1999/xlink" x="0px" y="0px"
	 width="150px" height="150px" viewBox="0 0 150 150" enable-background="new 0 0 150 150" xml:space="preserve">
<path fill="#00ACC8" d="M98.534,73.284c-4.449,2.542-10.735,5.906-18.87,10.101c-9.145,4.697-15.435,8.003-18.864,9.909l0.195-0.955
	c0-4.826-0.188-17.725-0.576-38.682c4.194,2.031,10.543,5.337,19.06,9.909C87.733,67.886,94.085,71.121,98.534,73.284z
	 M145.606,75.951c0-21.85-1.721-35.505-5.149-40.973c-3.049-5.08-16.135-8.128-39.26-9.142c-9.015-0.383-17.018-0.573-24.003-0.573
	c-4.194,0-8.005,0.063-11.438,0.19c-2.288,0.125-6.101,0.191-11.432,0.191c-5.338,0-9.404,0.063-12.197,0.191
	C29.3,26.469,22.056,26.979,20.399,27.36C9.73,30.023,4.394,45.971,4.394,75.19c0,22.359,2.097,36.081,6.293,41.16
	c3.559,4.444,13.53,6.986,29.92,7.625c13.718,0.507,26.165,0.761,37.347,0.761c9.396,0,17.91-0.191,25.53-0.573
	c16.9-0.764,26.554-1.587,28.967-2.476C141.219,118.257,145.606,103.012,145.606,75.951z"/>
</svg>
